<svg width="267" height="35" viewBox="0 0 267 35" fill="none" xmlns="http://www.w3.org/2000/svg">
<g filter="url(#filter0_d_1_3)">
<path d="M15.7907 11.792L16.6067 13.616L18.5267 17.792L18.9107 18.56H26.7347V25.28H18.2387C13.5827 24.608 10.0787 20.72 10.0787 16.208C10.0787 11.648 13.5827 7.76 18.2387 7.088H33.4067V0.367998H19.6307C15.3107 0.367998 11.2787 2 8.25469 4.928C5.13469 7.952 3.45469 11.936 3.45469 16.208C3.45469 20.48 5.13469 24.464 8.25469 27.44C11.2787 30.416 15.3107 32 19.6307 32H33.5027V18.56V11.792H15.7907ZM37.6971 30.128L36.6891 32H45.1371L45.4731 31.376L52.3371 18.944L48.1131 11.36L37.6971 30.128ZM72.3531 30.128L58.9131 5.888L56.1291 0.896L55.8411 0.223997H54.2091L53.8731 0.896L51.1371 5.888L50.8011 6.512L55.0251 14.144L55.1211 14.336L58.2411 19.952L64.5771 31.376L64.9131 32H73.3611L72.3531 30.128ZM77.2359 32H83.9559V21.296L77.2359 14.576V32ZM104.308 0.079999L91.5879 12.8L85.2999 6.512L78.8679 0.079999H77.2359V7.952L83.9559 14.672L87.0759 17.792L91.5879 22.304L92.4999 21.44L93.6999 20.192L94.0839 19.808L95.4759 18.464L99.0279 14.864V32H105.748V0.079999H104.308ZM110.658 0.271999V32H117.378V0.271999H110.658ZM140.909 12.8H131.789C130.205 12.8 128.909 11.504 128.909 9.92C128.909 8.336 130.205 7.04 131.789 7.04H142.301C143.357 7.376 144.077 8.336 144.077 9.488H150.653C150.653 8.624 150.557 7.808 150.317 7.04C149.261 3.152 145.709 0.319999 141.485 0.319999H131.789C128.333 0.319999 125.117 2.144 123.437 5.168C122.621 6.608 122.189 8.24 122.189 9.92C122.189 11.6 122.621 13.232 123.437 14.672C123.821 15.344 124.253 15.92 124.733 16.448C126.557 18.368 129.101 19.52 131.789 19.52H140.909C142.493 19.52 143.741 20.816 143.741 22.4C143.741 23.984 142.493 25.28 140.909 25.28H130.493C129.485 24.944 128.765 23.984 128.765 22.832H122.189C122.189 23.696 122.285 24.512 122.477 25.28C123.581 29.168 127.133 32 131.357 32H140.909C144.317 32 147.533 30.176 149.213 27.2C150.077 25.712 150.509 24.08 150.509 22.4C150.509 20.72 150.077 19.088 149.213 17.648C147.533 14.672 144.317 12.8 140.909 12.8ZM168.684 0.415998C159.948 0.415998 152.892 7.52 152.892 16.208C152.892 24.944 159.948 32 168.684 32C177.372 32 184.476 24.944 184.476 16.208C184.476 7.52 177.372 0.415998 168.684 0.415998ZM177.852 16.208C177.852 21.296 173.724 25.424 168.684 25.424C163.596 25.424 159.468 21.296 159.468 16.208C159.468 11.168 163.596 7.04 168.684 7.04C173.724 7.04 177.852 11.168 177.852 16.208ZM189.314 32H196.034V21.296L189.314 14.576V32ZM208.274 0.271999V17.36L190.946 0.079999H189.314V0.896V3.92V7.952L196.034 14.672L200.642 19.28L208.61 27.248L213.362 32H214.994V0.271999H208.274ZM219.783 0.271999V32H226.503V0.271999H219.783ZM230.728 30.128L229.72 32H238.168L238.504 31.376L245.368 18.944L241.144 11.36L230.728 30.128ZM265.384 30.128L251.944 5.888L249.16 0.896L248.872 0.223997H247.24L246.904 0.896L244.168 5.888L243.832 6.512L248.056 14.144L248.152 14.336L251.272 19.952L257.608 31.376L257.944 32H266.392L265.384 30.128Z" fill="#E6E6E6"/>
</g>
<defs>
<filter id="filter0_d_1_3" x="0.454681" y="0.0800018" width="265.938" height="34.92" filterUnits="userSpaceOnUse" color-interpolation-filters="sRGB">
<feFlood flood-opacity="0" result="BackgroundImageFix"/>
<feColorMatrix in="SourceAlpha" type="matrix" values="0 0 0 0 0 0 0 0 0 0 0 0 0 0 0 0 0 0 127 0" result="hardAlpha"/>
<feOffset dx="-3" dy="3"/>
<feComposite in2="hardAlpha" operator="out"/>
<feColorMatrix type="matrix" values="0 0 0 0 0.0823529 0 0 0 0 0.0823529 0 0 0 0 0.0823529 0 0 0 1 0"/>
<feBlend mode="normal" in2="BackgroundImageFix" result="effect1_dropShadow_1_3"/>
<feBlend mode="normal" in="SourceGraphic" in2="effect1_dropShadow_1_3" result="shape"/>
</filter>
</defs>
</svg>
