<svg width="50" height="50" viewBox="0 0 50 50" fill="none" xmlns="http://www.w3.org/2000/svg">
<g clip-path="url(#clip0_4_10)">
<path d="M50 0.775829C49.9072 0.568051 49.7936 0.550829 49.6592 0.724162C49.6164 0.779162 49.5755 0.835273 49.5367 0.892495C49.5061 0.937495 49.4822 1.00083 49.465 1.0825C49.4322 1.24361 49.3483 1.36333 49.2133 1.44166C49.1861 1.45777 49.0953 1.47944 48.9408 1.50666C48.8414 1.52444 48.7542 1.56972 48.6792 1.6425C48.6607 1.66041 48.6365 1.67233 48.61 1.67666C48.5106 1.69222 48.4331 1.73777 48.3775 1.81333C48.3019 1.91555 48.2619 1.96888 48.2575 1.97333C48.1642 2.07111 48.0725 2.17027 47.9825 2.27083C47.8675 2.39861 47.7658 2.48472 47.6775 2.52916C47.4853 2.62638 47.2733 2.65833 47.0417 2.625C46.9311 2.60888 46.7297 2.64472 46.4375 2.7325C46.4175 2.73861 46.3 2.75916 46.085 2.79416C45.9694 2.81361 45.8561 2.85972 45.745 2.9325C45.6306 3.0075 45.4908 3.07305 45.3258 3.12916C45.323 3.12972 45.2542 3.14416 45.1192 3.1725C45.0231 3.1925 44.9208 3.23916 44.8125 3.3125C44.6014 3.45527 44.3392 3.54583 44.0258 3.58416C44.0144 3.58542 44.0033 3.59007 43.9935 3.59766C43.9837 3.60525 43.9756 3.61553 43.97 3.6275C43.9328 3.70694 43.8586 3.74805 43.7475 3.75083C43.727 3.75114 43.7072 3.75902 43.692 3.77299C43.6768 3.78695 43.6672 3.80604 43.665 3.82666C43.6555 3.915 43.6175 3.94055 43.5508 3.90333C43.5331 3.89374 43.5065 3.89135 43.4767 3.89666L43.3383 3.92333C43.3245 3.9259 43.3119 3.93058 43.3015 3.93697C43.2912 3.94336 43.2836 3.95126 43.2792 3.96C43.1847 4.15277 43.0275 4.255 42.8075 4.26666C42.7319 4.27055 42.6719 4.30194 42.6275 4.36083C42.6248 4.36422 42.6214 4.36696 42.6175 4.36884C42.6136 4.37071 42.6093 4.37169 42.6049 4.37169C42.6005 4.37169 42.5961 4.37071 42.5921 4.36884C42.5881 4.36696 42.5845 4.36422 42.5817 4.36083C42.5672 4.34361 42.5503 4.33166 42.5308 4.325C42.5081 4.31666 42.4786 4.32194 42.4425 4.34083C42.3603 4.38305 42.2736 4.41166 42.1825 4.42666C42.1569 4.43036 42.1332 4.44474 42.1167 4.46666C42.0544 4.54555 41.9731 4.58555 41.8725 4.58666C41.8697 4.58666 41.8314 4.57777 41.7575 4.56C41.7125 4.54944 41.6708 4.56083 41.6325 4.59416C41.6236 4.60226 41.6127 4.60761 41.6011 4.60954C41.5895 4.61147 41.5778 4.60989 41.5675 4.605C41.4692 4.55666 41.3803 4.5675 41.3008 4.6375C41.2922 4.64504 41.2813 4.64942 41.2701 4.64987C41.2588 4.65033 41.2479 4.64684 41.2392 4.64C41.1886 4.60166 41.1697 4.60888 41.1825 4.66166C41.1536 4.70944 41.1131 4.72888 41.0608 4.72C41.0485 4.7179 41.0359 4.71837 41.0238 4.72138C41.0118 4.7244 41.0005 4.72989 40.9908 4.7375C40.9469 4.77361 40.9072 4.77 40.8717 4.72666C40.8638 4.7173 40.8536 4.71054 40.8424 4.70738C40.8313 4.70423 40.8199 4.70485 40.81 4.70916L40.5375 4.83583C40.5166 4.8455 40.4979 4.86566 40.485 4.8925C40.4678 4.92861 40.4439 4.95805 40.4133 4.98083C40.3856 5.00194 40.3394 5.01222 40.275 5.01166C40.0928 5.01111 39.9361 5.07527 39.805 5.20416C39.782 5.22664 39.7566 5.2401 39.7342 5.24166L39.5208 5.2525C39.5094 5.25297 39.4983 5.25654 39.4887 5.26284C39.479 5.26914 39.4711 5.27793 39.4658 5.28833C39.4458 5.32833 39.4103 5.34722 39.3592 5.345C39.3271 5.34289 39.2996 5.34827 39.2825 5.36L39.075 5.49666C39.0506 5.51277 39.0256 5.5225 39 5.52583C38.8656 5.54194 38.7339 5.56944 38.605 5.60833C38.4833 5.64555 38.3689 5.66805 38.2617 5.67583C38.1017 5.68805 37.985 5.7075 37.9117 5.73416C37.7822 5.78138 37.6744 5.80361 37.5883 5.80083C37.5583 5.79972 37.5322 5.80472 37.51 5.81583C37.1661 5.99194 36.8083 6.13277 36.4367 6.23833C36.4133 6.245 36.3897 6.25861 36.3658 6.27916C36.3108 6.32583 36.2475 6.34416 36.1758 6.33416C36.1389 6.32934 36.1013 6.33435 36.0669 6.34869C36.0326 6.36303 36.0026 6.38619 35.98 6.41583C35.8333 6.60805 35.6478 6.73916 35.4233 6.80916C35.4206 6.80972 35.3597 6.82194 35.2408 6.84583C35.0408 6.88527 34.8678 7.00861 34.7217 7.21583C34.6439 7.32583 34.5392 7.36694 34.4075 7.33916C34.3358 7.32416 34.2603 7.33805 34.1808 7.38083C34.1342 7.40583 34.0819 7.45694 34.0242 7.53416C33.7669 7.87916 33.4394 8.04138 33.0417 8.02083C32.6489 8.00027 32.2608 8.02777 31.8775 8.10333C31.8119 8.11666 31.7461 8.12166 31.68 8.11833C31.4822 8.10944 31.3106 8.11111 31.165 8.12333C30.8317 8.15166 30.6614 8.16611 30.6542 8.16666C30.3992 8.18444 30.1117 8.24 29.7917 8.33333C29.5878 8.39277 29.4464 8.49333 29.3675 8.635C29.3547 8.65744 29.3335 8.67415 29.3083 8.68166C29.1311 8.73166 29.0631 8.85916 29.1042 9.06416C29.1303 9.1925 29.0853 9.28694 28.9692 9.3475C28.8825 9.39305 28.8108 9.37555 28.7542 9.295C28.7519 9.29222 28.7283 9.23138 28.6833 9.1125C28.635 8.98527 28.5386 8.9375 28.3942 8.96916C28.3816 8.97177 28.3687 8.9717 28.3563 8.96897C28.3439 8.96624 28.3324 8.96091 28.3225 8.95333C28.2047 8.86388 28.0878 8.85722 27.9717 8.93333C27.9665 8.93672 27.9621 8.94105 27.9587 8.94603C27.9552 8.951 27.9528 8.95651 27.9516 8.96218C27.9504 8.96785 27.9505 8.97357 27.9518 8.97894C27.9531 8.98431 27.9556 8.98921 27.9592 8.99333L28.115 9.18083C28.1367 9.20638 28.1331 9.21583 28.1042 9.20916C28.0814 9.20361 28.0622 9.18777 28.0467 9.16166C28.0083 9.09722 27.9778 9.09194 27.955 9.14583" stroke="#191919" stroke-width="2"/>
<path d="M27.955 9.14582C26.9872 8.12305 26.0075 7.11138 25.0158 6.11082C24.8781 5.97194 24.7486 5.88666 24.6275 5.85499C24.4503 5.80888 24.2867 5.82749 24.1367 5.91082C24.0783 5.94305 23.92 6.08971 23.6617 6.35082C22.785 7.23638 21.9128 8.12638 21.045 9.02082" stroke="#747474" stroke-width="2"/>
<path d="M21.045 9.02083L21.035 8.85833C21.0346 8.85391 21.033 8.84973 21.0304 8.84613C21.0277 8.84254 21.024 8.83964 21.0195 8.83768C21.0151 8.83572 21.0101 8.83475 21.005 8.83487C20.9999 8.83498 20.9947 8.83617 20.99 8.83833C20.9339 8.865 20.8864 8.86 20.8475 8.82333C20.8064 8.78389 20.7836 8.76278 20.7792 8.76C20.6169 8.65111 20.4458 8.55861 20.2658 8.4825C20.1386 8.42861 20.0456 8.32583 19.9867 8.17416C19.9721 8.13694 19.9468 8.10492 19.9139 8.0822C19.8811 8.05949 19.8423 8.04711 19.8025 8.04666C19.5381 8.04333 19.27 8.02694 18.9983 7.9975C18.8656 7.98305 18.6578 7.97416 18.375 7.97083C18.1861 7.96916 17.9778 7.95111 17.75 7.91666C17.46 7.87333 17.105 7.85666 16.685 7.86666C16.5089 7.87111 16.3611 7.85083 16.2417 7.80583C16.0994 7.75139 15.9642 7.6825 15.8358 7.59916C15.829 7.59442 15.8231 7.58823 15.8185 7.58094C15.8139 7.57364 15.8108 7.5654 15.8092 7.55666C15.8014 7.50889 15.7869 7.5075 15.7658 7.5525C15.7647 7.5551 15.7629 7.55736 15.7606 7.55908C15.7584 7.56081 15.7556 7.56196 15.7526 7.56244C15.7496 7.56293 15.7465 7.56273 15.7434 7.56187C15.7404 7.56102 15.7375 7.55952 15.735 7.5575L15.5 7.37916C15.4913 7.37264 15.4798 7.36912 15.4669 7.36897C15.4539 7.36882 15.44 7.37206 15.4267 7.37833C15.3206 7.42777 15.2156 7.43861 15.1117 7.41083C14.93 7.3625 14.8381 7.33805 14.8358 7.3375C14.5581 7.30694 14.2794 7.28527 14 7.2725C13.9744 7.2714 13.9473 7.27773 13.9217 7.29083C13.83 7.33861 13.745 7.35972 13.6667 7.35416C13.3906 7.33472 13.1683 7.33472 13 7.35416C12.8061 7.37694 12.6483 7.29333 12.5267 7.10333C12.5149 7.08447 12.5101 7.0575 12.5133 7.0275C12.5222 6.94639 12.4831 6.86777 12.3958 6.79166C12.2914 6.7 12.1367 6.67 11.9317 6.70166C11.8 6.72166 11.6678 6.72472 11.535 6.71083C11.2183 6.67805 10.8567 6.66278 10.45 6.665C10.3289 6.66555 10.2119 6.65027 10.0992 6.61916C9.98417 6.5875 9.86917 6.55666 9.75417 6.52666C9.72927 6.51963 9.70672 6.50382 9.69 6.48166C9.57444 6.32166 9.41889 6.25444 9.22333 6.28C9.19488 6.28376 9.16759 6.27813 9.14667 6.26416C9 6.17027 8.89556 6.05444 8.83333 5.91666C8.73 5.68777 8.61167 5.49527 8.47833 5.33916C8.46889 5.32805 8.42167 5.29055 8.33667 5.22666C8.28 5.18444 8.24944 5.12777 8.245 5.05666C8.24421 5.04485 8.24069 5.03305 8.23467 5.02201C8.22865 5.01097 8.22025 5.00092 8.21 4.9925C8.15889 4.95083 8.13056 4.88389 8.125 4.79166C8.12056 4.72 8.08333 4.67166 8.01333 4.64666C7.93722 4.62 7.88639 4.59972 7.86083 4.58583C7.79306 4.54861 7.72083 4.52222 7.64417 4.50666C7.62373 4.50287 7.60067 4.48868 7.57917 4.46666L7.355 4.23333C7.33944 4.21722 7.30944 4.20222 7.265 4.18833L6.9125 4.08C6.88139 4.07055 6.85528 4.06805 6.83417 4.0725C6.77083 4.08472 6.70889 4.08416 6.64833 4.07083C6.54056 4.04583 6.48194 4.03194 6.4725 4.02916C6.39806 4.00472 6.37528 3.94472 6.40417 3.84916C6.406 3.84246 6.41128 3.83411 6.41954 3.82483C6.42781 3.81555 6.43883 3.8056 6.45167 3.79583C6.46722 3.78361 6.47083 3.76833 6.4625 3.75C6.45472 3.73222 6.45 3.72055 6.44833 3.715C6.40722 3.54611 6.35889 3.53972 6.30333 3.69583C6.29556 3.71694 6.29306 3.73916 6.29583 3.7625C6.33639 4.06416 6.31333 4.08861 6.22667 3.83583C6.21962 3.8147 6.21962 3.78758 6.22667 3.75833C6.24278 3.69444 6.22278 3.64444 6.16667 3.60833C6.12556 3.58166 6.1025 3.56611 6.0975 3.56166C5.95361 3.44333 5.81194 3.32277 5.6725 3.2C5.66277 3.19159 5.65122 3.18531 5.63859 3.18158C5.62596 3.17785 5.61254 3.17674 5.59917 3.17833C5.46028 3.195 5.35528 3.15972 5.28417 3.0725C5.21417 2.98639 5.12667 2.92555 5.02167 2.89C4.75611 2.8 4.55 2.68 4.40333 2.53C4.3867 2.51278 4.36186 2.50155 4.33333 2.49833C4.27556 2.49166 4.22694 2.46583 4.1875 2.42083C4.17838 2.41056 4.17245 2.39395 4.17083 2.37416C4.16639 2.33361 4.15361 2.33139 4.1325 2.3675C4.13125 2.36979 4.12942 2.37171 4.1272 2.37308C4.12497 2.37445 4.12243 2.37521 4.11982 2.37529C4.11721 2.37538 4.11463 2.37478 4.11232 2.37356C4.11001 2.37234 4.10806 2.37054 4.10667 2.36833C4.07389 2.31555 4.05222 2.31639 4.04167 2.37083C4.03973 2.38048 4.03426 2.3895 4.02596 2.39677C4.01765 2.40404 4.00687 2.40922 3.995 2.41166C3.96722 2.41722 3.95278 2.43555 3.95167 2.46666C3.95056 2.48777 3.94389 2.49111 3.93167 2.47666L3.91333 2.45416C3.91139 2.45169 3.90887 2.4497 3.90602 2.44838C3.90317 2.44706 3.90008 2.44645 3.89706 2.44662C3.89404 2.44679 3.89119 2.44772 3.88879 2.44934C3.88638 2.45095 3.8845 2.45319 3.88333 2.45583C3.86556 2.4975 3.83639 2.52722 3.79583 2.545C3.7916 2.54687 3.78697 2.54758 3.78231 2.5471C3.77765 2.54661 3.77309 2.54493 3.76898 2.54219C3.76487 2.53945 3.76132 2.53572 3.7586 2.53129C3.75589 2.52686 3.75409 2.52186 3.75333 2.51666L3.7225 2.29583C3.72199 2.29147 3.7203 2.28737 3.71759 2.28387C3.71487 2.28037 3.7112 2.27757 3.70689 2.27569C3.70257 2.27382 3.69773 2.27293 3.69276 2.2731C3.6878 2.27327 3.68285 2.27449 3.67833 2.27666C3.61722 2.30666 3.56472 2.28889 3.52083 2.22333C3.50509 2.19996 3.48421 2.18227 3.46083 2.1725C3.34472 2.12472 3.24778 2.05055 3.17 1.95C3.16236 1.94002 3.1524 1.93211 3.14104 1.92702C3.12968 1.92192 3.11729 1.91979 3.105 1.92083C2.83944 1.94194 2.55583 1.90166 2.25417 1.8C2.21235 1.78554 2.16655 1.78733 2.12583 1.805C1.93917 1.88389 1.85389 1.8375 1.87 1.66583C1.87268 1.63683 1.86615 1.60978 1.85167 1.59C1.77056 1.47666 1.69667 1.47416 1.63 1.5825C1.62393 1.59255 1.62 1.6045 1.61843 1.61766C1.61685 1.63081 1.61767 1.64492 1.62083 1.65916C1.63694 1.73194 1.60972 1.75944 1.53917 1.74166C1.52549 1.73835 1.51179 1.73791 1.49939 1.74039C1.48698 1.74287 1.47629 1.74819 1.46833 1.75583C1.41889 1.8025 1.44083 1.82222 1.53417 1.815C1.54617 1.81412 1.55808 1.81759 1.56772 1.82479C1.57737 1.83198 1.58409 1.84241 1.58667 1.85416C1.61667 1.99694 1.60583 2.05389 1.55417 2.025C1.54738 2.02134 1.54265 2.0134 1.54082 2.00257C1.53899 1.99175 1.54018 1.97874 1.54417 1.96583C1.55306 1.93805 1.52694 1.92027 1.46583 1.9125C1.45353 1.91084 1.44217 1.90513 1.43368 1.89633C1.42518 1.88753 1.42006 1.87617 1.41917 1.86416C1.40639 1.71083 1.33278 1.57916 1.19833 1.46916C1.19299 1.46476 1.18681 1.4615 1.18017 1.45957C1.17353 1.45764 1.16656 1.45709 1.15969 1.45794C1.15283 1.4588 1.14621 1.46105 1.14024 1.46456C1.13428 1.46806 1.12909 1.47275 1.125 1.47833C1.10056 1.51111 1.06278 1.52305 1.01167 1.51416C0.956667 1.50527 0.920278 1.50083 0.9025 1.50083C0.750278 1.49916 0.593056 1.47555 0.430833 1.43C0.269722 1.38444 0.162222 1.45194 0.108333 1.6325L0 1.995" stroke="#191919" stroke-width="2"/>
<path d="M50 32.0883C49.8278 32.1678 49.6472 32.2081 49.4583 32.2092C49.4328 32.2092 49.4064 32.2005 49.3825 32.1842C49.2531 32.0997 49.1144 32.0594 48.9667 32.0633C48.8328 32.0672 48.73 32.0678 48.6583 32.065C48.5528 32.0611 48.4492 32.075 48.3475 32.1067C48.3216 32.1142 48.294 32.1131 48.2692 32.1033C48.1008 32.0361 47.9417 32.0294 47.7917 32.0833C47.73 32.1056 47.6789 32.1067 47.6383 32.0867C47.605 32.0706 47.5797 32.0622 47.5625 32.0617C45.9814 32.0233 44.4003 32.0147 42.8192 32.0358C42.4003 32.0414 41.9275 32.0408 41.4008 32.0342C40.9275 32.0281 40.4542 32.0272 39.9808 32.0317C39.6386 32.0356 39.2205 32.0286 38.7267 32.0108C38.3067 31.9958 37.8883 31.9922 37.4717 32C37.4325 32.0005 37.3939 32.0095 37.3585 32.0263C37.3231 32.0431 37.2918 32.0674 37.2667 32.0975C37.2072 32.1681 37.1472 32.1861 37.0867 32.1517C37.0494 32.13 37.02 32.0875 36.9983 32.0242C36.9467 31.8747 36.9264 31.7278 36.9375 31.5833C36.9442 31.4983 36.923 31.4375 36.8742 31.4008C36.8508 31.3831 36.8372 31.39 36.8333 31.4217C36.7989 31.7211 36.7569 32.0194 36.7075 32.3167C36.6986 32.3706 36.6925 32.4517 36.6892 32.56C36.6864 32.6428 36.6755 32.7242 36.6567 32.8042C36.6183 32.9731 36.5972 33.0922 36.5933 33.1617C36.565 33.6711 36.5617 33.9853 36.5833 34.1042C36.5967 34.1769 36.5883 34.2108 36.5583 34.2058C36.5481 34.2039 36.5388 34.1969 36.532 34.1859C36.5253 34.1749 36.5217 34.1607 36.5217 34.1458L36.5033 30.7917" stroke="#181818" stroke-width="2"/>
<path d="M36.5033 30.7917L36.4967 28.9375" stroke="#6E6E6E" stroke-width="2"/>
<path d="M36.4967 28.9375C36.5006 25.9619 36.5017 22.9867 36.5 20.0117C36.5 20.0078 36.5036 19.7222 36.5108 19.155C36.5142 18.8633 36.5103 18.5689 36.4992 18.2717C36.4942 18.1367 36.4494 18.0164 36.365 17.9108C36.2317 17.743 36.0811 17.5725 35.9133 17.3992C33.2583 14.6503 30.6056 11.8992 27.955 9.14583" stroke="#717171" stroke-width="2"/>
<path d="M21.045 9.02083L14.1492 16.1308C14.0497 16.2331 14 16.3558 14 16.4992L14.0033 29.7292" stroke="#717171" stroke-width="2"/>
<path d="M14.0033 29.7292L13.9967 32.3542" stroke="#6E6E6E" stroke-width="2"/>
<path d="M13.9967 32.3542L13.9708 32.7542C13.9697 32.7758 13.9675 32.7892 13.9642 32.7942C13.9481 32.8208 13.9389 32.8078 13.9367 32.755C13.9294 32.5706 13.9214 32.3864 13.9125 32.2025C13.9086 32.1319 13.8914 32.1147 13.8608 32.1508C13.8464 32.1681 13.8369 32.1661 13.8325 32.145C13.8114 32.035 13.7614 31.9814 13.6825 31.9842C12.3647 32.0325 11.2328 32.0533 10.2867 32.0467C10.0828 32.0456 9.90861 32.06 9.76417 32.09C9.75909 32.0911 9.7498 32.09 9.73731 32.0867C9.72483 32.0835 9.70962 32.0783 9.69333 32.0717C9.68055 32.0667 9.66472 32.0636 9.64583 32.0625C9.1025 32.0292 8.59694 32.0628 8.12917 32.1633C8.11719 32.1659 8.10593 32.1717 8.09646 32.1803C8.08698 32.1889 8.0796 32.2 8.075 32.2125L7.86417 32.8092C7.85879 32.8241 7.85065 32.837 7.84084 32.8464C7.83102 32.8558 7.81998 32.8611 7.80917 32.8617L7.38417 32.8792C7.31665 32.8818 7.26153 32.8949 7.23 32.9158C7.13444 32.9797 7.03778 33.0411 6.94 33.1C6.84 33.1606 6.73444 33.2011 6.62333 33.2217C6.31611 33.2794 6.00667 33.3075 5.695 33.3058C5.33555 33.3042 5.15361 33.3033 5.14917 33.3033C4.34083 33.3167 3.50444 33.2814 2.64 33.1975C2.53333 33.1875 2.44917 33.1386 2.3875 33.0508C2.30472 32.933 2.20639 32.823 2.0925 32.7208C1.98861 32.628 1.87194 32.5939 1.7425 32.6183C1.63417 32.6389 1.57917 32.6492 1.5775 32.6492C1.44472 32.6492 1.365 32.5769 1.33833 32.4325C1.29944 32.2181 1.18167 32.1131 0.985 32.1175C0.958333 32.1181 0.931667 32.1131 0.905 32.1025C0.855555 32.0825 0.805 32.0747 0.753333 32.0792C0.643333 32.0881 0.581389 32.0919 0.5675 32.0908C0.370278 32.0681 0.181111 32.0153 0 31.9325" stroke="#181818" stroke-width="2"/>
<path d="M36.4967 28.9375C36.3844 28.9203 36.2719 28.9053 36.1592 28.8925C36.0914 28.8842 35.9875 28.8944 35.8475 28.9233C35.7325 28.9472 35.6161 28.9422 35.4983 28.9083C35.4828 28.9039 35.4558 28.9025 35.4175 28.9042L35.1875 28.915C35.0386 28.9217 34.9422 28.9653 34.8983 29.0458C34.6678 29.4719 34.3267 29.6997 33.875 29.7292C33.6467 29.7442 33.4339 29.8511 33.2367 30.05C33.1389 30.1494 33.0458 30.2167 32.9575 30.2517C32.7247 30.3433 32.5167 30.3914 32.3333 30.3958C32.2155 30.3986 32.1119 30.4105 32.0225 30.4317C31.8714 30.4667 31.7708 30.4855 31.7208 30.4883C30.9108 30.5344 30.3858 30.5383 30.1458 30.5C29.928 30.4655 29.7283 30.5158 29.5467 30.6508C29.3617 30.7886 29.1578 30.8961 28.935 30.9733C28.7639 31.0322 28.5392 31.0606 28.2608 31.0583C27.5092 31.0528 26.7578 31.0647 26.0067 31.0942C25.8305 31.1014 25.6755 31.0847 25.5417 31.0442C25.4067 31.0036 25.258 30.9505 25.0958 30.885C25.0633 30.8716 25.0092 30.8698 24.945 30.88L24.6508 30.925C24.6396 30.9267 24.6293 30.9313 24.6213 30.9382C24.6132 30.945 24.6078 30.9538 24.6058 30.9633C24.5992 30.9944 24.5839 31.0167 24.56 31.03C24.5491 31.0357 24.5399 31.0436 24.5336 31.0529C24.5272 31.0622 24.524 31.0724 24.5242 31.0825C24.5253 31.158 24.4975 31.2208 24.4408 31.2708" stroke="#C9C9C9" stroke-width="2"/>
<path d="M24.4408 31.2708C24.4369 30.0558 24.4358 28.8405 24.4375 27.625C24.4381 27.3511 24.3378 27.1555 24.1367 27.0383C24.0206 26.9711 23.8261 26.9372 23.5533 26.9367C22.9589 26.9361 22.3647 26.9375 21.7708 26.9408" stroke="#737373" stroke-width="2"/>
<path d="M21.7708 26.9408C21.4531 26.9042 21.2214 26.9919 21.0758 27.2042C20.9981 27.3175 20.9581 27.4955 20.9558 27.7383C20.9353 29.8183 20.9281 31.8986 20.9342 33.9792" stroke="#848484" stroke-width="2"/>
<path d="M20.9342 33.9792C20.8775 33.9681 20.8508 33.9125 20.8542 33.8125C20.8719 33.2914 20.8722 32.2358 20.855 30.6458C20.8544 30.5931 20.8442 30.5389 20.8242 30.4833C20.8058 30.4306 20.7889 30.3775 20.7733 30.3242C20.7694 30.3103 20.7628 30.31 20.7533 30.3233L20.7375 30.3467C20.7169 30.3778 20.7053 30.4008 20.7025 30.4158C20.6753 30.5636 20.5933 30.6636 20.4567 30.7158C20.4355 30.724 20.4075 30.7251 20.3767 30.7192C20.2678 30.6986 20.1614 30.7281 20.0575 30.8075C19.8814 30.9414 19.6742 30.9811 19.4358 30.9267C19.4097 30.9206 19.3828 30.9206 19.355 30.9267C19.1033 30.9811 18.9061 30.9036 18.7633 30.6942C18.5883 30.4369 18.3408 30.3306 18.0208 30.375C17.6875 30.4211 17.3689 30.38 17.065 30.2517C17.053 30.2464 17.0399 30.2439 17.0265 30.2442C17.0131 30.2444 16.9998 30.2476 16.9875 30.2533C16.7842 30.3467 16.585 30.3389 16.39 30.23C16.3665 30.2169 16.3401 30.2103 16.3133 30.2108C16.0972 30.2169 15.9511 30.1131 15.875 29.8992C15.8311 29.7769 15.7564 29.7089 15.6508 29.695C15.6042 29.6889 15.5139 29.6892 15.38 29.6958C15.2711 29.7014 15.1497 29.7317 15.0158 29.7867C14.6247 29.9461 14.3405 29.8336 14.1633 29.4492C14.1561 29.4336 14.148 29.4333 14.1392 29.4483C14.1325 29.4594 14.1253 29.4667 14.1175 29.47C14.1133 29.4721 14.1087 29.4724 14.1039 29.471C14.0991 29.4696 14.0942 29.4665 14.0897 29.462C14.0852 29.4574 14.0812 29.4514 14.0779 29.4446C14.0746 29.4378 14.0722 29.4302 14.0708 29.4225C14.0325 29.2125 14.0158 29.2592 14.0208 29.5625C14.0219 29.6403 14.0161 29.6958 14.0033 29.7292" stroke="#C9C9C9" stroke-width="2"/>
<path d="M27.8275 19.0008L27.6392 19.5358" stroke="#B8B8B8" stroke-width="2"/>
<path d="M27.6392 19.5358C27.4886 20.558 27.8294 21.3742 28.6617 21.9842C29.1106 22.3136 29.6192 22.4386 30.1875 22.3592" stroke="#E5E5E5" stroke-width="2"/>
<path d="M30.1875 22.3592C31.0969 22.2497 31.7469 21.8483 32.1375 21.155C32.4036 20.6833 32.5136 20.1908 32.4675 19.6775C32.4186 19.1358 32.1858 18.6536 31.7692 18.2308C31.1753 17.6286 30.4761 17.3936 29.6717 17.5258C28.8044 17.6692 28.1897 18.1608 27.8275 19.0008" stroke="#979797" stroke-width="2"/>
<path d="M30.1875 22.3592L30.4167 22.1425" stroke="#B0B0B0" stroke-width="2"/>
<path d="M30.4167 22.1425C30.6133 22.2669 30.78 22.2264 30.9167 22.0208C31.1289 21.7014 31.2908 21.3786 31.4025 21.0525C31.4392 20.9464 31.4533 20.8256 31.445 20.69C31.4378 20.5661 31.4336 20.4422 31.4325 20.3183C31.4325 20.2935 31.4232 20.2674 31.4058 20.2442C31.3725 20.1992 31.3536 20.1494 31.3492 20.095C31.3403 19.9933 31.3319 19.9317 31.3242 19.91C31.1486 19.4117 30.8331 19.0336 30.3775 18.7758C30.3086 18.7369 30.2206 18.7008 30.1133 18.6675C30.0217 18.6397 29.9308 18.61 29.8408 18.5783C29.6703 18.5189 29.5331 18.4833 29.4292 18.4717C28.9719 18.4217 28.5425 18.5197 28.1408 18.7658C28.0725 18.8075 27.9681 18.8858 27.8275 19.0008" stroke="#838383" stroke-width="2"/>
<path d="M30.4167 22.1425C30.9267 21.6919 31.1558 21.1514 31.1042 20.5208C31.0664 20.0608 30.8925 19.6761 30.5825 19.3667C30.2986 19.0839 29.9442 18.905 29.5192 18.83C28.8119 18.7055 28.1853 18.9408 27.6392 19.5358" stroke="#D1D1D1" stroke-width="2"/>
<path d="M21.7708 26.9408C21.7953 28.5297 21.8061 30.1189 21.8033 31.7083C21.8028 31.9539 21.7764 32.1536 21.7242 32.3075C21.5886 32.7042 21.3331 33.3747 20.9575 34.3192" stroke="#2B2B2B" stroke-width="2"/>
<path d="M20.9575 34.3192L20.9342 33.9792" stroke="#818181" stroke-width="2"/>
<path d="M24.4408 31.2708C24.4369 33.9031 24.4375 36.535 24.4425 39.1667C24.4431 39.4717 24.5447 39.7005 24.7475 39.8533C24.7736 39.8728 24.9819 39.9711 25.3725 40.1483C25.8931 40.3844 26.4147 40.6186 26.9375 40.8508" stroke="#707070" stroke-width="2"/>
<path d="M26.9375 40.8508C29.6625 42.0803 32.3883 43.3072 35.115 44.5317C35.41 44.6639 35.6164 44.7378 35.7342 44.7533C36.0258 44.7928 36.2414 44.6881 36.3808 44.4392C36.4564 44.3036 36.495 44.0967 36.4967 43.8183C36.5044 41.9278 36.5044 40.0369 36.4967 38.1458" stroke="#6D6D6D" stroke-width="2"/>
<path d="M36.4967 38.1458L36.5033 30.7917" stroke="#707070" stroke-width="2"/>
<path d="M13.9967 32.3542C14.0006 32.9997 13.9958 33.6456 13.9825 34.2917C13.9708 34.8611 14.2406 35.1458 14.7917 35.1458C16.4567 35.1458 18.1214 35.1458 19.7858 35.1458C20.1586 35.1458 20.4086 35.1167 20.5358 35.0583C20.8042 34.935 20.9447 34.6886 20.9575 34.3192" stroke="#707070" stroke-width="2"/>
<path d="M36.4967 38.1458C36.4722 38.3558 36.4594 38.5664 36.4583 38.7775C36.4583 38.7875 36.4567 38.7967 36.4533 38.805C36.4328 38.8617 36.4225 38.8642 36.4225 38.8125C36.4203 38.6231 36.3433 38.5539 36.1917 38.605C36.1683 38.6128 36.1314 38.6361 36.0808 38.675C36.0408 38.7067 36 38.7247 35.9583 38.7292C35.7706 38.7492 35.5197 38.7622 35.2058 38.7683C35.0947 38.7706 34.9739 38.7883 34.8433 38.8217C34.7233 38.8522 34.6019 38.8761 34.4792 38.8933C34.3703 38.9083 34.2219 38.9428 34.0342 38.9967C33.8492 39.0494 33.6569 39.0661 33.4575 39.0467C33.4314 39.0439 33.4053 39.0483 33.3792 39.06C33.2647 39.1111 33.145 39.128 33.02 39.1108C32.9936 39.1076 32.967 39.1138 32.945 39.1283C32.8628 39.1822 32.7742 39.215 32.6792 39.2267C32.5058 39.2483 32.415 39.2606 32.4067 39.2633C32.2039 39.3311 32.0714 39.4622 32.0092 39.6567C31.9808 39.7461 31.9206 39.7992 31.8283 39.8158C31.385 39.8953 30.9633 39.9314 30.5633 39.9242C30.5589 39.9242 30.4203 39.9122 30.1475 39.8883C29.8475 39.8622 29.5542 39.9017 29.2675 40.0067C29.2428 40.0153 29.2156 40.0147 29.1908 40.005C28.7775 39.845 28.3669 39.843 27.9592 39.9992C27.8303 40.048 27.7036 40.0433 27.5792 39.985C27.2808 39.8444 27.0492 39.8933 26.8842 40.1317C26.8375 40.1989 26.7911 40.2519 26.745 40.2908C26.6794 40.3458 26.6278 40.3961 26.59 40.4417C26.581 40.4525 26.5746 40.4653 26.5712 40.479C26.5679 40.4927 26.5677 40.507 26.5706 40.5208C26.5736 40.5346 26.5797 40.5475 26.5884 40.5587C26.5971 40.5698 26.6082 40.5788 26.6208 40.585C26.8475 40.695 26.9531 40.7836 26.9375 40.8508" stroke="#C2C2C2" stroke-width="2"/>
<path d="M0 0H50V0.775833C49.9072 0.568056 49.7936 0.550833 49.6592 0.724167C49.6164 0.779167 49.5756 0.835278 49.5367 0.8925C49.5061 0.9375 49.4822 1.00083 49.465 1.0825C49.4322 1.24361 49.3483 1.36333 49.2133 1.44167C49.1861 1.45778 49.0953 1.47944 48.9408 1.50667C48.8414 1.52444 48.7542 1.56972 48.6792 1.6425C48.6607 1.66041 48.6366 1.67234 48.61 1.67667C48.5106 1.69222 48.4331 1.73778 48.3775 1.81333C48.3019 1.91556 48.2619 1.96889 48.2575 1.97333C48.1642 2.07111 48.0725 2.17028 47.9825 2.27083C47.8675 2.39861 47.7658 2.48472 47.6775 2.52917C47.4853 2.62639 47.2733 2.65833 47.0417 2.625C46.9311 2.60889 46.7297 2.64472 46.4375 2.7325C46.4175 2.73861 46.3 2.75917 46.085 2.79417C45.9694 2.81361 45.8561 2.85972 45.745 2.9325C45.6306 3.0075 45.4908 3.07306 45.3258 3.12917C45.3231 3.12972 45.2542 3.14417 45.1192 3.1725C45.0231 3.1925 44.9208 3.23917 44.8125 3.3125C44.6014 3.45528 44.3392 3.54583 44.0258 3.58417C44.0144 3.58542 44.0033 3.59007 43.9935 3.59767C43.9837 3.60526 43.9756 3.61553 43.97 3.6275C43.9328 3.70694 43.8586 3.74806 43.7475 3.75083C43.727 3.75114 43.7072 3.75902 43.692 3.77299C43.6769 3.78696 43.6672 3.80605 43.665 3.82667C43.6556 3.915 43.6175 3.94056 43.5508 3.90333C43.5331 3.89375 43.5065 3.89136 43.4767 3.89667L43.3383 3.92333C43.3245 3.92591 43.3119 3.93059 43.3016 3.93698C43.2912 3.94336 43.2836 3.95127 43.2792 3.96C43.1847 4.15278 43.0275 4.255 42.8075 4.26667C42.7319 4.27056 42.6719 4.30194 42.6275 4.36083C42.6248 4.36423 42.6214 4.36696 42.6175 4.36884C42.6136 4.37072 42.6093 4.37169 42.6049 4.37169C42.6005 4.37169 42.5961 4.37072 42.5921 4.36884C42.5881 4.36696 42.5845 4.36423 42.5817 4.36083C42.5672 4.34361 42.5503 4.33167 42.5308 4.325C42.5081 4.31667 42.4786 4.32194 42.4425 4.34083C42.3603 4.38306 42.2736 4.41167 42.1825 4.42667C42.1569 4.43036 42.1332 4.44475 42.1167 4.46667C42.0544 4.54556 41.9731 4.58556 41.8725 4.58667C41.8697 4.58667 41.8314 4.57778 41.7575 4.56C41.7125 4.54944 41.6708 4.56083 41.6325 4.59417C41.6236 4.60226 41.6127 4.60762 41.6011 4.60955C41.5895 4.61148 41.5778 4.60989 41.5675 4.605C41.4692 4.55667 41.3803 4.5675 41.3008 4.6375C41.2922 4.64504 41.2813 4.64942 41.2701 4.64988C41.2588 4.65033 41.2479 4.64684 41.2392 4.64C41.1886 4.60167 41.1697 4.60889 41.1825 4.66167C41.1536 4.70944 41.1131 4.72889 41.0608 4.72C41.0485 4.7179 41.0359 4.71838 41.0238 4.72139C41.0118 4.7244 41.0005 4.72989 40.9908 4.7375C40.9469 4.77361 40.9072 4.77 40.8717 4.72667C40.8638 4.71731 40.8536 4.71054 40.8424 4.70739C40.8313 4.70423 40.8199 4.70486 40.81 4.70917L40.5375 4.83583C40.5166 4.8455 40.4979 4.86567 40.485 4.8925C40.4678 4.92861 40.4439 4.95806 40.4133 4.98083C40.3856 5.00194 40.3394 5.01222 40.275 5.01167C40.0928 5.01111 39.9361 5.07528 39.805 5.20417C39.782 5.22664 39.7566 5.2401 39.7342 5.24167L39.5208 5.2525C39.5094 5.25298 39.4983 5.25655 39.4887 5.26284C39.479 5.26914 39.4711 5.27794 39.4658 5.28833C39.4458 5.32833 39.4103 5.34722 39.3592 5.345C39.3271 5.34289 39.2996 5.34827 39.2825 5.36L39.075 5.49667C39.0506 5.51278 39.0256 5.5225 39 5.52583C38.8656 5.54194 38.7339 5.56944 38.605 5.60833C38.4833 5.64556 38.3689 5.66806 38.2617 5.67583C38.1017 5.68806 37.985 5.7075 37.9117 5.73417C37.7822 5.78139 37.6744 5.80361 37.5883 5.80083C37.5583 5.79972 37.5322 5.80472 37.51 5.81583C37.1661 5.99194 36.8083 6.13278 36.4367 6.23833C36.4133 6.245 36.3897 6.25861 36.3658 6.27917C36.3108 6.32583 36.2475 6.34417 36.1758 6.33417C36.1389 6.32934 36.1013 6.33435 36.0669 6.34869C36.0326 6.36303 36.0026 6.38619 35.98 6.41583C35.8333 6.60805 35.6478 6.73917 35.4233 6.80917C35.4206 6.80972 35.3597 6.82194 35.2408 6.84583C35.0408 6.88528 34.8678 7.00861 34.7217 7.21583C34.6439 7.32583 34.5392 7.36694 34.4075 7.33917C34.3358 7.32417 34.2603 7.33806 34.1808 7.38083C34.1342 7.40583 34.0819 7.45694 34.0242 7.53417C33.7669 7.87917 33.4394 8.04139 33.0417 8.02083C32.6489 8.00028 32.2608 8.02778 31.8775 8.10333C31.8119 8.11667 31.7461 8.12167 31.68 8.11833C31.4822 8.10944 31.3106 8.11111 31.165 8.12333C30.8317 8.15167 30.6614 8.16611 30.6542 8.16667C30.3992 8.18444 30.1117 8.24 29.7917 8.33333C29.5878 8.39278 29.4464 8.49333 29.3675 8.635C29.3547 8.65744 29.3335 8.67415 29.3083 8.68167C29.1311 8.73167 29.0631 8.85917 29.1042 9.06417C29.1303 9.1925 29.0853 9.28694 28.9692 9.3475C28.8825 9.39305 28.8108 9.37556 28.7542 9.295C28.7519 9.29222 28.7283 9.23139 28.6833 9.1125C28.635 8.98528 28.5386 8.9375 28.3942 8.96917C28.3816 8.97177 28.3687 8.97171 28.3563 8.96898C28.344 8.96624 28.3324 8.96091 28.3225 8.95333C28.2047 8.86389 28.0878 8.85722 27.9717 8.93333C27.9665 8.93673 27.9621 8.94106 27.9587 8.94603C27.9552 8.951 27.9528 8.95651 27.9516 8.96218C27.9504 8.96786 27.9505 8.97357 27.9518 8.97894C27.9531 8.98431 27.9556 8.98922 27.9592 8.99333L28.115 9.18083C28.1367 9.20639 28.1331 9.21583 28.1042 9.20917C28.0814 9.20361 28.0622 9.18778 28.0467 9.16167C28.0083 9.09722 27.9778 9.09194 27.955 9.14583C26.9872 8.12306 26.0075 7.11139 25.0158 6.11083C24.8781 5.97194 24.7486 5.88667 24.6275 5.855C24.4503 5.80889 24.2867 5.8275 24.1367 5.91083C24.0783 5.94306 23.92 6.08972 23.6617 6.35083C22.785 7.23639 21.9128 8.12639 21.045 9.02083L21.035 8.85833C21.0346 8.85391 21.033 8.84973 21.0304 8.84613C21.0277 8.84254 21.024 8.83964 21.0195 8.83768C21.0151 8.83572 21.0101 8.83476 21.005 8.83487C20.9999 8.83498 20.9947 8.83617 20.99 8.83833C20.9339 8.865 20.8864 8.86 20.8475 8.82333C20.8064 8.78389 20.7836 8.76278 20.7792 8.76C20.6169 8.65111 20.4458 8.55861 20.2658 8.4825C20.1386 8.42861 20.0456 8.32583 19.9867 8.17417C19.9721 8.13694 19.9468 8.10492 19.9139 8.0822C19.8811 8.05949 19.8423 8.04711 19.8025 8.04667C19.5381 8.04333 19.27 8.02694 18.9983 7.9975C18.8656 7.98306 18.6578 7.97417 18.375 7.97083C18.1861 7.96917 17.9778 7.95111 17.75 7.91667C17.46 7.87333 17.105 7.85667 16.685 7.86667C16.5089 7.87111 16.3611 7.85083 16.2417 7.80583C16.0994 7.75139 15.9642 7.6825 15.8358 7.59917C15.829 7.59443 15.8231 7.58823 15.8185 7.58094C15.8139 7.57365 15.8108 7.5654 15.8092 7.55667C15.8014 7.50889 15.7869 7.5075 15.7658 7.5525C15.7647 7.55511 15.7629 7.55736 15.7606 7.55909C15.7584 7.56081 15.7556 7.56196 15.7526 7.56244C15.7496 7.56293 15.7465 7.56273 15.7434 7.56188C15.7404 7.56102 15.7375 7.55952 15.735 7.5575L15.5 7.37917C15.4913 7.37265 15.4798 7.36912 15.4669 7.36897C15.4539 7.36882 15.44 7.37206 15.4267 7.37833C15.3206 7.42778 15.2156 7.43861 15.1117 7.41083C14.93 7.3625 14.8381 7.33806 14.8358 7.3375C14.5581 7.30694 14.2794 7.28528 14 7.2725C13.9744 7.27141 13.9473 7.27773 13.9217 7.29083C13.83 7.33861 13.745 7.35972 13.6667 7.35417C13.3906 7.33472 13.1683 7.33472 13 7.35417C12.8061 7.37694 12.6483 7.29333 12.5267 7.10333C12.5149 7.08447 12.5101 7.05751 12.5133 7.0275C12.5222 6.94639 12.4831 6.86778 12.3958 6.79167C12.2914 6.7 12.1367 6.67 11.9317 6.70167C11.8 6.72167 11.6678 6.72472 11.535 6.71083C11.2183 6.67806 10.8567 6.66278 10.45 6.665C10.3289 6.66556 10.2119 6.65028 10.0992 6.61917C9.98417 6.5875 9.86917 6.55667 9.75417 6.52667C9.72927 6.51963 9.70672 6.50382 9.69 6.48167C9.57444 6.32167 9.41889 6.25444 9.22333 6.28C9.19488 6.28377 9.16759 6.27813 9.14667 6.26417C9 6.17028 8.89556 6.05444 8.83333 5.91667C8.73 5.68778 8.61167 5.49528 8.47833 5.33917C8.46889 5.32806 8.42167 5.29056 8.33667 5.22667C8.28 5.18444 8.24944 5.12778 8.245 5.05667C8.24421 5.04485 8.24069 5.03305 8.23467 5.02201C8.22865 5.01097 8.22025 5.00093 8.21 4.9925C8.15889 4.95083 8.13056 4.88389 8.125 4.79167C8.12056 4.72 8.08333 4.67167 8.01333 4.64667C7.93722 4.62 7.88639 4.59972 7.86083 4.58583C7.79306 4.54861 7.72083 4.52222 7.64417 4.50667C7.62373 4.50288 7.60067 4.48868 7.57917 4.46667L7.355 4.23333C7.33944 4.21722 7.30944 4.20222 7.265 4.18833L6.9125 4.08C6.88139 4.07056 6.85528 4.06806 6.83417 4.0725C6.77083 4.08472 6.70889 4.08417 6.64833 4.07083C6.54056 4.04583 6.48194 4.03194 6.4725 4.02917C6.39806 4.00472 6.37528 3.94472 6.40417 3.84917C6.406 3.84246 6.41128 3.83412 6.41954 3.82483C6.42781 3.81555 6.43883 3.80561 6.45167 3.79583C6.46722 3.78361 6.47083 3.76833 6.4625 3.75C6.45472 3.73222 6.45 3.72056 6.44833 3.715C6.40722 3.54611 6.35889 3.53972 6.30333 3.69583C6.29556 3.71694 6.29306 3.73917 6.29583 3.7625C6.33639 4.06417 6.31333 4.08861 6.22667 3.83583C6.21962 3.8147 6.21962 3.78758 6.22667 3.75833C6.24278 3.69444 6.22278 3.64444 6.16667 3.60833C6.12556 3.58167 6.1025 3.56611 6.0975 3.56167C5.95361 3.44333 5.81194 3.32278 5.6725 3.2C5.66277 3.19159 5.65122 3.18532 5.63859 3.18159C5.62596 3.17786 5.61254 3.17675 5.59917 3.17833C5.46028 3.195 5.35528 3.15972 5.28417 3.0725C5.21417 2.98639 5.12667 2.92556 5.02167 2.89C4.75611 2.8 4.55 2.68 4.40333 2.53C4.3867 2.51279 4.36186 2.50155 4.33333 2.49833C4.27556 2.49167 4.22694 2.46583 4.1875 2.42083C4.17838 2.41056 4.17245 2.39395 4.17083 2.37417C4.16639 2.33361 4.15361 2.33139 4.1325 2.3675C4.13125 2.36979 4.12942 2.37171 4.1272 2.37308C4.12497 2.37445 4.12243 2.37521 4.11982 2.3753C4.11721 2.37538 4.11463 2.37478 4.11232 2.37356C4.11001 2.37234 4.10806 2.37054 4.10667 2.36833C4.07389 2.31556 4.05222 2.31639 4.04167 2.37083C4.03973 2.38048 4.03426 2.38951 4.02596 2.39678C4.01765 2.40405 4.00687 2.40923 3.995 2.41167C3.96722 2.41722 3.95278 2.43556 3.95167 2.46667C3.95056 2.48778 3.94389 2.49111 3.93167 2.47667L3.91333 2.45417C3.91139 2.4517 3.90887 2.44971 3.90602 2.44838C3.90317 2.44706 3.90008 2.44646 3.89706 2.44662C3.89404 2.44679 3.89119 2.44773 3.88879 2.44934C3.88638 2.45095 3.8845 2.45319 3.88333 2.45583C3.86556 2.4975 3.83639 2.52722 3.79583 2.545C3.7916 2.54687 3.78697 2.54759 3.78231 2.5471C3.77765 2.54661 3.77309 2.54493 3.76898 2.54219C3.76487 2.53945 3.76132 2.53572 3.7586 2.53129C3.75589 2.52687 3.75409 2.52186 3.75333 2.51667L3.7225 2.29583C3.72199 2.29148 3.7203 2.28738 3.71759 2.28387C3.71487 2.28037 3.7112 2.27757 3.70689 2.2757C3.70257 2.27382 3.69773 2.27293 3.69276 2.2731C3.6878 2.27327 3.68285 2.27449 3.67833 2.27667C3.61722 2.30667 3.56472 2.28889 3.52083 2.22333C3.50509 2.19997 3.48421 2.18227 3.46083 2.1725C3.34472 2.12472 3.24778 2.05056 3.17 1.95C3.16236 1.94002 3.1524 1.93212 3.14104 1.92702C3.12968 1.92192 3.11729 1.9198 3.105 1.92083C2.83944 1.94194 2.55583 1.90167 2.25417 1.8C2.21235 1.78555 2.16655 1.78733 2.12583 1.805C1.93917 1.88389 1.85389 1.8375 1.87 1.66583C1.87268 1.63683 1.86615 1.60979 1.85167 1.59C1.77056 1.47667 1.69667 1.47417 1.63 1.5825C1.62393 1.59256 1.62 1.6045 1.61843 1.61766C1.61685 1.63081 1.61767 1.64492 1.62083 1.65917C1.63694 1.73194 1.60972 1.75944 1.53917 1.74167C1.52549 1.73835 1.51179 1.73792 1.49939 1.7404C1.48698 1.74288 1.47629 1.74819 1.46833 1.75583C1.41889 1.8025 1.44083 1.82222 1.53417 1.815C1.54617 1.81412 1.55808 1.8176 1.56772 1.82479C1.57737 1.83198 1.58409 1.84241 1.58667 1.85417C1.61667 1.99694 1.60583 2.05389 1.55417 2.025C1.54738 2.02134 1.54265 2.0134 1.54082 2.00258C1.53899 1.99175 1.54018 1.97874 1.54417 1.96583C1.55306 1.93806 1.52694 1.92028 1.46583 1.9125C1.45353 1.91084 1.44217 1.90513 1.43368 1.89634C1.42518 1.88754 1.42006 1.87618 1.41917 1.86417C1.40639 1.71083 1.33278 1.57917 1.19833 1.46917C1.19299 1.46477 1.18681 1.4615 1.18017 1.45957C1.17353 1.45764 1.16656 1.45709 1.15969 1.45795C1.15283 1.45881 1.14621 1.46106 1.14024 1.46456C1.13428 1.46807 1.12909 1.47275 1.125 1.47833C1.10056 1.51111 1.06278 1.52306 1.01167 1.51417C0.956667 1.50528 0.920278 1.50083 0.9025 1.50083C0.750278 1.49917 0.593056 1.47556 0.430833 1.43C0.269722 1.38444 0.162222 1.45194 0.108333 1.6325L0 1.995V0Z" fill="#1B1B1B"/>
<path d="M50 0.775829V32.0883C49.8278 32.1678 49.6472 32.208 49.4583 32.2092C49.4328 32.2092 49.4064 32.2004 49.3825 32.1842C49.2531 32.0997 49.1144 32.0594 48.9667 32.0633C48.8328 32.0672 48.73 32.0678 48.6583 32.065C48.5528 32.0611 48.4492 32.075 48.3475 32.1067C48.3216 32.1142 48.294 32.1131 48.2692 32.1033C48.1008 32.0361 47.9417 32.0294 47.7917 32.0833C47.73 32.1055 47.6789 32.1067 47.6383 32.0867C47.605 32.0705 47.5797 32.0622 47.5625 32.0617C45.9814 32.0233 44.4003 32.0147 42.8192 32.0358C42.4003 32.0414 41.9275 32.0408 41.4008 32.0342C40.9275 32.028 40.4542 32.0272 39.9808 32.0317C39.6386 32.0355 39.2206 32.0286 38.7267 32.0108C38.3067 31.9958 37.8883 31.9922 37.4717 32C37.4325 32.0005 37.3939 32.0095 37.3585 32.0263C37.3231 32.0431 37.2918 32.0674 37.2667 32.0975C37.2072 32.168 37.1472 32.1861 37.0867 32.1517C37.0494 32.13 37.02 32.0875 36.9983 32.0242C36.9467 31.8747 36.9264 31.7278 36.9375 31.5833C36.9442 31.4983 36.9231 31.4375 36.8742 31.4008C36.8508 31.383 36.8372 31.39 36.8333 31.4217C36.7989 31.7211 36.7569 32.0194 36.7075 32.3167C36.6986 32.3705 36.6925 32.4517 36.6892 32.56C36.6864 32.6428 36.6756 32.7242 36.6567 32.8042C36.6183 32.973 36.5972 33.0922 36.5933 33.1617C36.565 33.6711 36.5617 33.9853 36.5833 34.1042C36.5967 34.1769 36.5883 34.2108 36.5583 34.2058C36.5481 34.2039 36.5388 34.1968 36.532 34.1859C36.5253 34.1749 36.5217 34.1607 36.5217 34.1458L36.5033 30.7917L36.4967 28.9375C36.5006 25.9619 36.5017 22.9867 36.5 20.0117C36.5 20.0078 36.5036 19.7222 36.5108 19.155C36.5142 18.8633 36.5103 18.5689 36.4992 18.2717C36.4942 18.1367 36.4494 18.0164 36.365 17.9108C36.2317 17.743 36.0811 17.5725 35.9133 17.3992C33.2583 14.6503 30.6056 11.8992 27.955 9.14583C27.9778 9.09194 28.0083 9.09722 28.0467 9.16166C28.0622 9.18777 28.0814 9.20361 28.1042 9.20916C28.1331 9.21583 28.1367 9.20638 28.115 9.18083L27.9592 8.99333C27.9556 8.98921 27.9531 8.98431 27.9518 8.97894C27.9505 8.97357 27.9504 8.96785 27.9516 8.96218C27.9528 8.95651 27.9552 8.951 27.9587 8.94602C27.9621 8.94105 27.9665 8.93672 27.9717 8.93333C28.0878 8.85722 28.2047 8.86388 28.3225 8.95333C28.3324 8.9609 28.3439 8.96624 28.3563 8.96897C28.3687 8.9717 28.3816 8.97177 28.3942 8.96916C28.5386 8.93749 28.635 8.98527 28.6833 9.11249C28.7283 9.23138 28.7519 9.29222 28.7542 9.295C28.8108 9.37555 28.8825 9.39305 28.9692 9.34749C29.0853 9.28694 29.1303 9.19249 29.1042 9.06416C29.0631 8.85916 29.1311 8.73166 29.3083 8.68166C29.3335 8.67415 29.3547 8.65743 29.3675 8.635C29.4464 8.49333 29.5878 8.39277 29.7917 8.33333C30.1117 8.24 30.3992 8.18444 30.6542 8.16666C30.6614 8.16611 30.8317 8.15166 31.165 8.12333C31.3106 8.11111 31.4822 8.10944 31.68 8.11833C31.7461 8.12166 31.8119 8.11666 31.8775 8.10333C32.2608 8.02777 32.6489 8.00027 33.0417 8.02083C33.4394 8.04138 33.7669 7.87916 34.0242 7.53416C34.0819 7.45694 34.1342 7.40583 34.1808 7.38083C34.2603 7.33805 34.3358 7.32416 34.4075 7.33916C34.5392 7.36694 34.6439 7.32583 34.7217 7.21583C34.8678 7.00861 35.0408 6.88527 35.2408 6.84583C35.3597 6.82194 35.4206 6.80972 35.4233 6.80916C35.6478 6.73916 35.8333 6.60805 35.98 6.41583C36.0026 6.38619 36.0326 6.36302 36.0669 6.34869C36.1013 6.33435 36.1389 6.32934 36.1758 6.33416C36.2475 6.34416 36.3108 6.32583 36.3658 6.27916C36.3897 6.25861 36.4133 6.245 36.4367 6.23833C36.8083 6.13277 37.1661 5.99194 37.51 5.81583C37.5322 5.80472 37.5583 5.79972 37.5883 5.80083C37.6744 5.80361 37.7822 5.78138 37.9117 5.73416C37.985 5.70749 38.1017 5.68805 38.2617 5.67583C38.3689 5.66805 38.4833 5.64555 38.605 5.60833C38.7339 5.56944 38.8656 5.54194 39 5.52583C39.0256 5.52249 39.0506 5.51277 39.075 5.49666L39.2825 5.35999C39.2996 5.34827 39.3271 5.34289 39.3592 5.34499C39.4103 5.34722 39.4458 5.32833 39.4658 5.28833C39.4711 5.27793 39.479 5.26913 39.4887 5.26284C39.4983 5.25654 39.5094 5.25297 39.5208 5.25249L39.7342 5.24166C39.7566 5.2401 39.782 5.22664 39.805 5.20416C39.9361 5.07527 40.0928 5.01111 40.275 5.01166C40.3394 5.01222 40.3856 5.00194 40.4133 4.98083C40.4439 4.95805 40.4678 4.92861 40.485 4.89249C40.4979 4.86566 40.5166 4.8455 40.5375 4.83583L40.81 4.70916C40.8199 4.70485 40.8313 4.70423 40.8424 4.70738C40.8536 4.71054 40.8638 4.7173 40.8717 4.72666C40.9072 4.77 40.9469 4.77361 40.9908 4.73749C41.0005 4.72989 41.0118 4.7244 41.0238 4.72138C41.0359 4.71837 41.0485 4.7179 41.0608 4.71999C41.1131 4.72888 41.1536 4.70944 41.1825 4.66166C41.1697 4.60888 41.1886 4.60166 41.2392 4.64C41.2479 4.64684 41.2588 4.65033 41.2701 4.64987C41.2813 4.64942 41.2922 4.64504 41.3008 4.6375C41.3803 4.5675 41.4692 4.55666 41.5675 4.60499C41.5778 4.60989 41.5895 4.61147 41.6011 4.60954C41.6127 4.60761 41.6236 4.60226 41.6325 4.59416C41.6708 4.56083 41.7125 4.54944 41.7575 4.56C41.8314 4.57777 41.8697 4.58666 41.8725 4.58666C41.9731 4.58555 42.0544 4.54555 42.1167 4.46666C42.1332 4.44474 42.1569 4.43036 42.1825 4.42666C42.2736 4.41166 42.3603 4.38305 42.4425 4.34083C42.4786 4.32194 42.5081 4.31666 42.5308 4.325C42.5503 4.33166 42.5672 4.34361 42.5817 4.36083C42.5845 4.36422 42.5881 4.36696 42.5921 4.36884C42.5961 4.37071 42.6005 4.37169 42.6049 4.37169C42.6093 4.37169 42.6136 4.37071 42.6175 4.36884C42.6214 4.36696 42.6248 4.36422 42.6275 4.36083C42.6719 4.30194 42.7319 4.27055 42.8075 4.26666C43.0275 4.255 43.1847 4.15277 43.2792 3.96C43.2836 3.95126 43.2912 3.94336 43.3015 3.93697C43.3119 3.93058 43.3245 3.9259 43.3383 3.92333L43.4767 3.89666C43.5065 3.89135 43.5331 3.89374 43.5508 3.90333C43.6175 3.94055 43.6555 3.91499 43.665 3.82666C43.6672 3.80604 43.6768 3.78695 43.692 3.77298C43.7072 3.75902 43.727 3.75114 43.7475 3.75083C43.8586 3.74805 43.9328 3.70694 43.97 3.62749C43.9756 3.61553 43.9837 3.60525 43.9935 3.59766C44.0033 3.59007 44.0144 3.58542 44.0258 3.58416C44.3392 3.54583 44.6014 3.45527 44.8125 3.3125C44.9208 3.23916 45.0231 3.1925 45.1192 3.1725C45.2542 3.14416 45.323 3.12972 45.3258 3.12916C45.4908 3.07305 45.6306 3.0075 45.745 2.9325C45.8561 2.85972 45.9694 2.81361 46.085 2.79416C46.3 2.75916 46.4175 2.73861 46.4375 2.7325C46.7297 2.64472 46.9311 2.60888 47.0417 2.625C47.2733 2.65833 47.4853 2.62638 47.6775 2.52916C47.7658 2.48472 47.8675 2.39861 47.9825 2.27083C48.0725 2.17027 48.1642 2.07111 48.2575 1.97333C48.2619 1.96888 48.3019 1.91555 48.3775 1.81333C48.4331 1.73777 48.5106 1.69222 48.61 1.67666C48.6365 1.67233 48.6607 1.66041 48.6792 1.6425C48.7542 1.56972 48.8414 1.52444 48.9408 1.50666C49.0953 1.47944 49.1861 1.45777 49.2133 1.44166C49.3483 1.36333 49.4322 1.24361 49.465 1.0825C49.4822 1.00083 49.5061 0.937495 49.5367 0.892495C49.5755 0.835273 49.6164 0.779162 49.6592 0.724162C49.7936 0.550829 49.9072 0.568051 50 0.775829Z" fill="#161616"/>
<path d="M21.045 9.02083L14.1492 16.1308C14.0497 16.2331 14 16.3558 14 16.4992L14.0033 29.7292L13.9967 32.3542L13.9708 32.7542C13.9697 32.7758 13.9675 32.7892 13.9642 32.7942C13.9481 32.8208 13.9389 32.8078 13.9367 32.755C13.9294 32.5706 13.9214 32.3864 13.9125 32.2025C13.9086 32.1319 13.8914 32.1147 13.8608 32.1508C13.8464 32.1681 13.8369 32.1661 13.8325 32.145C13.8114 32.035 13.7614 31.9814 13.6825 31.9842C12.3647 32.0325 11.2328 32.0533 10.2867 32.0467C10.0828 32.0456 9.90861 32.06 9.76417 32.09C9.75909 32.0911 9.7498 32.09 9.73732 32.0867C9.72483 32.0835 9.70962 32.0783 9.69333 32.0717C9.68056 32.0667 9.66472 32.0636 9.64583 32.0625C9.1025 32.0292 8.59694 32.0628 8.12917 32.1633C8.11719 32.1659 8.10593 32.1717 8.09646 32.1803C8.08698 32.1889 8.0796 32.2 8.075 32.2125L7.86417 32.8092C7.85879 32.8241 7.85065 32.837 7.84084 32.8464C7.83102 32.8558 7.81998 32.8611 7.80917 32.8617L7.38417 32.8792C7.31665 32.8818 7.26153 32.8949 7.23 32.9158C7.13444 32.9797 7.03778 33.0411 6.94 33.1C6.84 33.1606 6.73444 33.2011 6.62333 33.2217C6.31611 33.2794 6.00667 33.3075 5.695 33.3058C5.33556 33.3042 5.15361 33.3033 5.14917 33.3033C4.34083 33.3167 3.50444 33.2814 2.64 33.1975C2.53333 33.1875 2.44917 33.1386 2.3875 33.0508C2.30472 32.9331 2.20639 32.8231 2.0925 32.7208C1.98861 32.6281 1.87194 32.5939 1.7425 32.6183C1.63417 32.6389 1.57917 32.6492 1.5775 32.6492C1.44472 32.6492 1.365 32.5769 1.33833 32.4325C1.29944 32.2181 1.18167 32.1131 0.985 32.1175C0.958333 32.1181 0.931667 32.1131 0.905 32.1025C0.855556 32.0825 0.805 32.0747 0.753333 32.0792C0.643333 32.0881 0.581389 32.0919 0.5675 32.0908C0.370278 32.0681 0.181111 32.0153 0 31.9325V1.995L0.108333 1.6325C0.162222 1.45194 0.269722 1.38444 0.430833 1.43C0.593056 1.47555 0.750278 1.49916 0.9025 1.50083C0.920278 1.50083 0.956667 1.50527 1.01167 1.51416C1.06278 1.52305 1.10056 1.51111 1.125 1.47833C1.12909 1.47275 1.13428 1.46806 1.14024 1.46456C1.14621 1.46105 1.15283 1.4588 1.15969 1.45794C1.16656 1.45709 1.17353 1.45764 1.18017 1.45957C1.18681 1.4615 1.19299 1.46476 1.19833 1.46916C1.33278 1.57916 1.40639 1.71083 1.41917 1.86416C1.42006 1.87617 1.42518 1.88753 1.43368 1.89633C1.44217 1.90513 1.45353 1.91084 1.46583 1.9125C1.52694 1.92027 1.55306 1.93805 1.54417 1.96583C1.54018 1.97874 1.53899 1.99175 1.54082 2.00257C1.54265 2.0134 1.54738 2.02134 1.55417 2.025C1.60583 2.05389 1.61667 1.99694 1.58667 1.85416C1.58409 1.84241 1.57737 1.83198 1.56772 1.82479C1.55808 1.81759 1.54617 1.81412 1.53417 1.815C1.44083 1.82222 1.41889 1.8025 1.46833 1.75583C1.47629 1.74819 1.48698 1.74287 1.49939 1.74039C1.51179 1.73791 1.52549 1.73835 1.53917 1.74166C1.60972 1.75944 1.63694 1.73194 1.62083 1.65916C1.61767 1.64492 1.61685 1.63081 1.61843 1.61766C1.62 1.6045 1.62393 1.59255 1.63 1.5825C1.69667 1.47416 1.77056 1.47666 1.85167 1.59C1.86615 1.60978 1.87268 1.63683 1.87 1.66583C1.85389 1.8375 1.93917 1.88389 2.12583 1.805C2.16655 1.78733 2.21235 1.78554 2.25417 1.8C2.55583 1.90166 2.83944 1.94194 3.105 1.92083C3.11729 1.91979 3.12968 1.92192 3.14104 1.92702C3.1524 1.93211 3.16236 1.94002 3.17 1.95C3.24778 2.05055 3.34472 2.12472 3.46083 2.1725C3.48421 2.18227 3.50509 2.19996 3.52083 2.22333C3.56472 2.28889 3.61722 2.30666 3.67833 2.27666C3.68285 2.27449 3.6878 2.27327 3.69276 2.2731C3.69773 2.27293 3.70257 2.27382 3.70689 2.27569C3.7112 2.27757 3.71487 2.28037 3.71759 2.28387C3.7203 2.28737 3.72199 2.29147 3.7225 2.29583L3.75333 2.51666C3.75409 2.52186 3.75589 2.52686 3.7586 2.53129C3.76132 2.53572 3.76487 2.53945 3.76898 2.54219C3.77309 2.54493 3.77765 2.54661 3.78231 2.5471C3.78697 2.54758 3.7916 2.54687 3.79583 2.545C3.83639 2.52722 3.86556 2.4975 3.88333 2.45583C3.8845 2.45319 3.88638 2.45095 3.88879 2.44934C3.89119 2.44772 3.89404 2.44679 3.89706 2.44662C3.90008 2.44645 3.90317 2.44706 3.90602 2.44838C3.90887 2.4497 3.91139 2.45169 3.91333 2.45416L3.93167 2.47666C3.94389 2.49111 3.95056 2.48777 3.95167 2.46666C3.95278 2.43555 3.96722 2.41722 3.995 2.41166C4.00687 2.40922 4.01765 2.40404 4.02596 2.39677C4.03426 2.3895 4.03973 2.38048 4.04167 2.37083C4.05222 2.31639 4.07389 2.31555 4.10667 2.36833C4.10806 2.37054 4.11001 2.37234 4.11232 2.37356C4.11463 2.37478 4.11721 2.37538 4.11982 2.37529C4.12243 2.37521 4.12497 2.37445 4.1272 2.37308C4.12942 2.37171 4.13125 2.36979 4.1325 2.3675C4.15361 2.33139 4.16639 2.33361 4.17083 2.37416C4.17245 2.39395 4.17838 2.41056 4.1875 2.42083C4.22694 2.46583 4.27556 2.49166 4.33333 2.49833C4.36186 2.50155 4.3867 2.51278 4.40333 2.53C4.55 2.68 4.75611 2.8 5.02167 2.89C5.12667 2.92555 5.21417 2.98639 5.28417 3.0725C5.35528 3.15972 5.46028 3.195 5.59917 3.17833C5.61254 3.17674 5.62596 3.17785 5.63859 3.18158C5.65122 3.18531 5.66277 3.19159 5.6725 3.2C5.81194 3.32277 5.95361 3.44333 6.0975 3.56166C6.1025 3.56611 6.12556 3.58166 6.16667 3.60833C6.22278 3.64444 6.24278 3.69444 6.22667 3.75833C6.21962 3.78758 6.21962 3.8147 6.22667 3.83583C6.31333 4.08861 6.33639 4.06416 6.29583 3.7625C6.29306 3.73916 6.29556 3.71694 6.30333 3.69583C6.35889 3.53972 6.40722 3.54611 6.44833 3.715C6.45 3.72055 6.45472 3.73222 6.4625 3.75C6.47083 3.76833 6.46722 3.78361 6.45167 3.79583C6.43883 3.8056 6.42781 3.81555 6.41954 3.82483C6.41128 3.83411 6.406 3.84246 6.40417 3.84916C6.37528 3.94472 6.39806 4.00472 6.4725 4.02916C6.48194 4.03194 6.54056 4.04583 6.64833 4.07083C6.70889 4.08416 6.77083 4.08472 6.83417 4.0725C6.85528 4.06805 6.88139 4.07055 6.9125 4.08L7.265 4.18833C7.30944 4.20222 7.33944 4.21722 7.355 4.23333L7.57917 4.46666C7.60067 4.48868 7.62373 4.50287 7.64417 4.50666C7.72083 4.52222 7.79306 4.54861 7.86083 4.58583C7.88639 4.59972 7.93722 4.62 8.01333 4.64666C8.08333 4.67166 8.12056 4.72 8.125 4.79166C8.13056 4.88389 8.15889 4.95083 8.21 4.9925C8.22025 5.00092 8.22865 5.01097 8.23467 5.02201C8.24069 5.03305 8.24421 5.04485 8.245 5.05666C8.24944 5.12777 8.28 5.18444 8.33667 5.22666C8.42167 5.29055 8.46889 5.32805 8.47833 5.33916C8.61167 5.49527 8.73 5.68777 8.83333 5.91666C8.89556 6.05444 9 6.17027 9.14667 6.26416C9.16759 6.27813 9.19488 6.28376 9.22333 6.28C9.41889 6.25444 9.57444 6.32166 9.69 6.48166C9.70672 6.50382 9.72927 6.51963 9.75417 6.52666C9.86917 6.55666 9.98417 6.5875 10.0992 6.61916C10.2119 6.65027 10.3289 6.66555 10.45 6.665C10.8567 6.66278 11.2183 6.67805 11.535 6.71083C11.6678 6.72472 11.8 6.72166 11.9317 6.70166C12.1367 6.67 12.2914 6.7 12.3958 6.79166C12.4831 6.86777 12.5222 6.94639 12.5133 7.0275C12.5101 7.0575 12.5149 7.08447 12.5267 7.10333C12.6483 7.29333 12.8061 7.37694 13 7.35416C13.1683 7.33472 13.3906 7.33472 13.6667 7.35416C13.745 7.35972 13.83 7.33861 13.9217 7.29083C13.9473 7.27773 13.9744 7.2714 14 7.2725C14.2794 7.28527 14.5581 7.30694 14.8358 7.3375C14.8381 7.33805 14.93 7.3625 15.1117 7.41083C15.2156 7.43861 15.3206 7.42777 15.4267 7.37833C15.44 7.37206 15.4539 7.36882 15.4669 7.36897C15.4798 7.36912 15.4913 7.37264 15.5 7.37916L15.735 7.5575C15.7375 7.55952 15.7404 7.56102 15.7434 7.56187C15.7465 7.56273 15.7496 7.56293 15.7526 7.56244C15.7556 7.56196 15.7584 7.56081 15.7606 7.55908C15.7629 7.55736 15.7647 7.5551 15.7658 7.5525C15.7869 7.5075 15.8014 7.50889 15.8092 7.55666C15.8108 7.5654 15.8139 7.57364 15.8185 7.58094C15.8231 7.58823 15.829 7.59442 15.8358 7.59916C15.9642 7.6825 16.0994 7.75139 16.2417 7.80583C16.3611 7.85083 16.5089 7.87111 16.685 7.86666C17.105 7.85666 17.46 7.87333 17.75 7.91666C17.9778 7.95111 18.1861 7.96916 18.375 7.97083C18.6578 7.97416 18.8656 7.98305 18.9983 7.9975C19.27 8.02694 19.5381 8.04333 19.8025 8.04666C19.8423 8.04711 19.8811 8.05949 19.9139 8.0822C19.9468 8.10492 19.9721 8.13694 19.9867 8.17416C20.0456 8.32583 20.1386 8.42861 20.2658 8.4825C20.4458 8.55861 20.6169 8.65111 20.7792 8.76C20.7836 8.76278 20.8064 8.78389 20.8475 8.82333C20.8864 8.86 20.9339 8.865 20.99 8.83833C20.9947 8.83617 20.9999 8.83498 21.005 8.83487C21.0101 8.83475 21.0151 8.83572 21.0195 8.83768C21.024 8.83964 21.0277 8.84254 21.0304 8.84613C21.033 8.84973 21.0346 8.85391 21.035 8.85833L21.045 9.02083Z" fill="#161616"/>
<path d="M27.955 9.14584C30.6056 11.8992 33.2583 14.6503 35.9133 17.3992C36.0811 17.5725 36.2317 17.7431 36.365 17.9108C36.4494 18.0164 36.4942 18.1367 36.4992 18.2717C36.5103 18.5689 36.5142 18.8633 36.5108 19.155C36.5036 19.7222 36.5 20.0078 36.5 20.0117C36.5017 22.9867 36.5006 25.962 36.4967 28.9375C36.3844 28.9203 36.2719 28.9053 36.1592 28.8925C36.0914 28.8842 35.9875 28.8944 35.8475 28.9233C35.7325 28.9472 35.6161 28.9422 35.4983 28.9083C35.4828 28.9039 35.4558 28.9025 35.4175 28.9042L35.1875 28.915C35.0386 28.9217 34.9422 28.9653 34.8983 29.0458C34.6678 29.4719 34.3267 29.6997 33.875 29.7292C33.6467 29.7442 33.4339 29.8511 33.2367 30.05C33.1389 30.1495 33.0458 30.2167 32.9575 30.2517C32.7247 30.3433 32.5167 30.3914 32.3333 30.3958C32.2156 30.3986 32.1119 30.4106 32.0225 30.4317C31.8714 30.4667 31.7708 30.4856 31.7208 30.4883C30.9108 30.5344 30.3858 30.5383 30.1458 30.5C29.9281 30.4656 29.7283 30.5158 29.5467 30.6508C29.3617 30.7886 29.1578 30.8961 28.935 30.9733C28.7639 31.0322 28.5392 31.0606 28.2608 31.0583C27.5092 31.0528 26.7578 31.0647 26.0067 31.0942C25.8306 31.1014 25.6756 31.0847 25.5417 31.0442C25.4067 31.0036 25.2581 30.9506 25.0958 30.885C25.0634 30.8716 25.0092 30.8698 24.945 30.88L24.6508 30.925C24.6396 30.9267 24.6293 30.9313 24.6213 30.9382C24.6132 30.945 24.6079 30.9538 24.6058 30.9633C24.5992 30.9945 24.5839 31.0167 24.56 31.03C24.5491 31.0357 24.5399 31.0436 24.5336 31.0529C24.5272 31.0622 24.524 31.0725 24.5242 31.0825C24.5253 31.1581 24.4975 31.2208 24.4408 31.2708C24.4369 30.0558 24.4358 28.8406 24.4375 27.625C24.4381 27.3511 24.3378 27.1556 24.1367 27.0383C24.0206 26.9711 23.8261 26.9372 23.5533 26.9367C22.9589 26.9361 22.3647 26.9375 21.7708 26.9408C21.4531 26.9042 21.2214 26.992 21.0758 27.2042C20.9981 27.3175 20.9581 27.4956 20.9558 27.7383C20.9353 29.8183 20.9281 31.8986 20.9342 33.9792C20.8775 33.9681 20.8508 33.9125 20.8542 33.8125C20.8719 33.2914 20.8722 32.2358 20.855 30.6458C20.8544 30.5931 20.8442 30.5389 20.8242 30.4833C20.8058 30.4306 20.7889 30.3775 20.7733 30.3242C20.7694 30.3103 20.7628 30.31 20.7533 30.3233L20.7375 30.3467C20.7169 30.3778 20.7053 30.4008 20.7025 30.4158C20.6753 30.5636 20.5933 30.6636 20.4567 30.7158C20.4355 30.724 20.4075 30.7251 20.3767 30.7192C20.2678 30.6986 20.1614 30.7281 20.0575 30.8075C19.8814 30.9414 19.6742 30.9811 19.4358 30.9267C19.4097 30.9206 19.3828 30.9206 19.355 30.9267C19.1033 30.9811 18.9061 30.9036 18.7633 30.6942C18.5883 30.4369 18.3408 30.3306 18.0208 30.375C17.6875 30.4211 17.3689 30.38 17.065 30.2517C17.053 30.2464 17.0399 30.2439 17.0265 30.2442C17.0132 30.2444 16.9999 30.2476 16.9875 30.2533C16.7842 30.3467 16.585 30.3389 16.39 30.23C16.3665 30.2169 16.3401 30.2103 16.3133 30.2108C16.0972 30.217 15.9511 30.1131 15.875 29.8992C15.8311 29.777 15.7564 29.7089 15.6508 29.695C15.6042 29.6889 15.5139 29.6892 15.38 29.6958C15.2711 29.7014 15.1497 29.7317 15.0158 29.7867C14.6247 29.9461 14.3406 29.8336 14.1633 29.4492C14.1561 29.4336 14.1481 29.4333 14.1392 29.4483C14.1325 29.4595 14.1253 29.4667 14.1175 29.47C14.1134 29.4721 14.1087 29.4724 14.1039 29.4711C14.0991 29.4697 14.0942 29.4666 14.0897 29.462C14.0852 29.4574 14.0812 29.4515 14.0779 29.4446C14.0746 29.4378 14.0722 29.4302 14.0708 29.4225C14.0325 29.2125 14.0158 29.2592 14.0208 29.5625C14.0219 29.6403 14.0161 29.6958 14.0033 29.7292L14 16.4992C14 16.3558 14.0497 16.2331 14.1492 16.1308L21.045 9.02084C21.9128 8.1264 22.785 7.2364 23.6617 6.35084C23.92 6.08973 24.0783 5.94306 24.1367 5.91084C24.2867 5.82751 24.4503 5.8089 24.6275 5.85501C24.7486 5.88667 24.8781 5.97195 25.0158 6.11084C26.0075 7.1114 26.9872 8.12306 27.955 9.14584ZM27.8275 19.0008L27.6392 19.5358C27.4886 20.5581 27.8294 21.3742 28.6617 21.9842C29.1106 22.3136 29.6192 22.4386 30.1875 22.3592C31.0969 22.2497 31.7469 21.8483 32.1375 21.155C32.4036 20.6833 32.5136 20.1908 32.4675 19.6775C32.4186 19.1358 32.1858 18.6536 31.7692 18.2308C31.1753 17.6286 30.4761 17.3936 29.6717 17.5258C28.8044 17.6692 28.1897 18.1608 27.8275 19.0008Z" fill="#CCCCCC"/>
<path d="M30.1875 22.3592L30.4167 22.1425C30.6133 22.2669 30.78 22.2264 30.9167 22.0208C31.1289 21.7014 31.2908 21.3786 31.4025 21.0525C31.4392 20.9464 31.4533 20.8256 31.445 20.69C31.4378 20.5661 31.4336 20.4422 31.4325 20.3183C31.4325 20.2935 31.4232 20.2674 31.4058 20.2442C31.3725 20.1992 31.3536 20.1494 31.3492 20.095C31.3403 19.9933 31.3319 19.9317 31.3242 19.91C31.1486 19.4117 30.8331 19.0336 30.3775 18.7758C30.3086 18.7369 30.2206 18.7008 30.1133 18.6675C30.0217 18.6397 29.9308 18.61 29.8408 18.5783C29.6703 18.5189 29.5331 18.4833 29.4292 18.4717C28.9719 18.4217 28.5425 18.5197 28.1408 18.7658C28.0725 18.8075 27.9681 18.8858 27.8275 19.0008C28.1897 18.1608 28.8044 17.6692 29.6717 17.5258C30.4761 17.3936 31.1753 17.6286 31.7692 18.2308C32.1858 18.6536 32.4186 19.1358 32.4675 19.6775C32.5136 20.1908 32.4036 20.6833 32.1375 21.155C31.7469 21.8483 31.0969 22.2497 30.1875 22.3592Z" fill="#626262"/>
<path d="M30.4167 22.1425C30.9267 21.6919 31.1558 21.1514 31.1042 20.5208C31.0664 20.0608 30.8925 19.6761 30.5825 19.3667C30.2986 19.0839 29.9442 18.905 29.5192 18.83C28.8119 18.7056 28.1853 18.9408 27.6392 19.5358L27.8275 19.0008C27.968 18.8858 28.0725 18.8075 28.1408 18.7658C28.5425 18.5197 28.9719 18.4217 29.4292 18.4717C29.533 18.4833 29.6703 18.5189 29.8408 18.5783C29.9308 18.61 30.0217 18.6397 30.1133 18.6675C30.2205 18.7008 30.3086 18.7369 30.3775 18.7758C30.833 19.0336 31.1486 19.4117 31.3242 19.91C31.3319 19.9317 31.3403 19.9933 31.3492 20.095C31.3536 20.1494 31.3725 20.1992 31.4058 20.2442C31.4231 20.2674 31.4325 20.2935 31.4325 20.3183C31.4336 20.4422 31.4378 20.5661 31.445 20.69C31.4533 20.8256 31.4392 20.9464 31.4025 21.0525C31.2908 21.3786 31.1289 21.7014 30.9167 22.0208C30.78 22.2264 30.6133 22.2669 30.4167 22.1425Z" fill="#A4A4A4"/>
<path d="M30.4167 22.1425L30.1875 22.3592C29.6192 22.4386 29.1106 22.3136 28.6617 21.9842C27.8294 21.3742 27.4886 20.5581 27.6392 19.5358C28.1853 18.9408 28.8119 18.7056 29.5192 18.83C29.9442 18.905 30.2986 19.0839 30.5825 19.3667C30.8925 19.6761 31.0664 20.0608 31.1042 20.5208C31.1558 21.1514 30.9267 21.6919 30.4167 22.1425Z" fill="#FDFDFD"/>
<path d="M21.7708 26.9408C21.7953 28.5297 21.8061 30.1189 21.8033 31.7083C21.8028 31.9539 21.7764 32.1536 21.7242 32.3075C21.5886 32.7042 21.3331 33.3747 20.9575 34.3192L20.9342 33.9792C20.9281 31.8986 20.9353 29.8183 20.9558 27.7383C20.9581 27.4956 20.9981 27.3175 21.0758 27.2042C21.2214 26.992 21.4531 26.9042 21.7708 26.9408Z" fill="#3B3B3B"/>
<path d="M21.7708 26.9408C22.3647 26.9375 22.9589 26.9361 23.5533 26.9367C23.8261 26.9372 24.0206 26.9711 24.1367 27.0383C24.3378 27.1556 24.4381 27.3511 24.4375 27.625C24.4358 28.8406 24.4369 30.0558 24.4408 31.2708C24.4369 33.9031 24.4375 36.535 24.4425 39.1667C24.4431 39.4717 24.5447 39.7006 24.7475 39.8533C24.7736 39.8728 24.9819 39.9711 25.3725 40.1483C25.8931 40.3845 26.4147 40.6186 26.9375 40.8508C29.6625 42.0803 32.3883 43.3072 35.115 44.5317C35.41 44.6639 35.6164 44.7378 35.7342 44.7533C36.0258 44.7928 36.2414 44.6881 36.3808 44.4392C36.4564 44.3036 36.495 44.0967 36.4967 43.8183C36.5044 41.9278 36.5044 40.037 36.4967 38.1458L36.5033 30.7917L36.5217 34.1458C36.5217 34.1607 36.5253 34.1749 36.5321 34.1859C36.5388 34.1969 36.5481 34.2039 36.5583 34.2058C36.5883 34.2108 36.5967 34.177 36.5833 34.1042C36.5617 33.9853 36.565 33.6711 36.5933 33.1617C36.5972 33.0922 36.6183 32.9731 36.6567 32.8042C36.6756 32.7242 36.6864 32.6428 36.6892 32.56C36.6925 32.4517 36.6986 32.3706 36.7075 32.3167C36.7569 32.0195 36.7989 31.7211 36.8333 31.4217C36.8372 31.39 36.8508 31.3831 36.8742 31.4008C36.9231 31.4375 36.9442 31.4983 36.9375 31.5833C36.9264 31.7278 36.9467 31.8747 36.9983 32.0242C37.02 32.0875 37.0494 32.13 37.0867 32.1517C37.1472 32.1861 37.2072 32.1681 37.2667 32.0975C37.2918 32.0674 37.3231 32.0431 37.3585 32.0263C37.3939 32.0095 37.4325 32.0005 37.4717 32C37.8883 31.9922 38.3067 31.9958 38.7267 32.0108C39.2206 32.0286 39.6386 32.0356 39.9808 32.0317C40.4542 32.0272 40.9275 32.0281 41.4008 32.0342C41.9275 32.0408 42.4003 32.0414 42.8192 32.0358C44.4003 32.0147 45.9814 32.0233 47.5625 32.0617C47.5797 32.0622 47.605 32.0706 47.6383 32.0867C47.6789 32.1067 47.73 32.1056 47.7917 32.0833C47.9417 32.0295 48.1008 32.0361 48.2692 32.1033C48.294 32.1131 48.3216 32.1143 48.3475 32.1067C48.4492 32.075 48.5528 32.0611 48.6583 32.065C48.73 32.0678 48.8328 32.0672 48.9667 32.0633C49.1144 32.0595 49.2531 32.0997 49.3825 32.1842C49.4064 32.2005 49.4328 32.2092 49.4583 32.2092C49.6472 32.2081 49.8278 32.1678 50 32.0883V50H0V31.9325C0.181111 32.0153 0.370278 32.0681 0.5675 32.0908C0.581389 32.092 0.643333 32.0881 0.753333 32.0792C0.805 32.0747 0.855556 32.0825 0.905 32.1025C0.931667 32.1131 0.958333 32.1181 0.985 32.1175C1.18167 32.1131 1.29944 32.2181 1.33833 32.4325C1.365 32.577 1.44472 32.6492 1.5775 32.6492C1.57917 32.6492 1.63417 32.6389 1.7425 32.6183C1.87194 32.5939 1.98861 32.6281 2.0925 32.7208C2.20639 32.8231 2.30472 32.9331 2.3875 33.0508C2.44917 33.1386 2.53333 33.1875 2.64 33.1975C3.50444 33.2814 4.34083 33.3167 5.14917 33.3033C5.15361 33.3033 5.33556 33.3042 5.695 33.3058C6.00667 33.3075 6.31611 33.2795 6.62333 33.2217C6.73444 33.2011 6.84 33.1606 6.94 33.1C7.03778 33.0411 7.13444 32.9797 7.23 32.9158C7.26153 32.895 7.31665 32.8818 7.38417 32.8792L7.80917 32.8617C7.81998 32.8611 7.83102 32.8558 7.84084 32.8464C7.85065 32.837 7.85879 32.8241 7.86417 32.8092L8.075 32.2125C8.0796 32.2 8.08698 32.1889 8.09646 32.1803C8.10593 32.1717 8.11719 32.1659 8.12917 32.1633C8.59694 32.0628 9.1025 32.0292 9.64583 32.0625C9.66472 32.0636 9.68056 32.0667 9.69333 32.0717C9.70962 32.0783 9.72483 32.0835 9.73732 32.0867C9.7498 32.09 9.75909 32.0911 9.76417 32.09C9.90861 32.06 10.0828 32.0456 10.2867 32.0467C11.2328 32.0533 12.3647 32.0325 13.6825 31.9842C13.7614 31.9814 13.8114 32.035 13.8325 32.145C13.8369 32.1661 13.8464 32.1681 13.8608 32.1508C13.8914 32.1147 13.9086 32.132 13.9125 32.2025C13.9214 32.3864 13.9294 32.5706 13.9367 32.755C13.9389 32.8078 13.9481 32.8208 13.9642 32.7942C13.9675 32.7892 13.9697 32.7758 13.9708 32.7542L13.9967 32.3542C14.0006 32.9997 13.9958 33.6456 13.9825 34.2917C13.9708 34.8611 14.2406 35.1458 14.7917 35.1458C16.4567 35.1458 18.1214 35.1458 19.7858 35.1458C20.1586 35.1458 20.4086 35.1167 20.5358 35.0583C20.8042 34.935 20.9447 34.6886 20.9575 34.3192C21.3331 33.3747 21.5886 32.7042 21.7242 32.3075C21.7764 32.1536 21.8028 31.9539 21.8033 31.7083C21.8061 30.1189 21.7953 28.5297 21.7708 26.9408Z" fill="#1A1A1A"/>
<path d="M36.4967 28.9375L36.5033 30.7917L36.4967 38.1458C36.4722 38.3558 36.4594 38.5664 36.4583 38.7775C36.4583 38.7875 36.4567 38.7967 36.4533 38.805C36.4328 38.8617 36.4225 38.8642 36.4225 38.8125C36.4203 38.6231 36.3433 38.5539 36.1917 38.605C36.1683 38.6128 36.1314 38.6361 36.0808 38.675C36.0408 38.7067 36 38.7247 35.9583 38.7292C35.7706 38.7492 35.5197 38.7622 35.2058 38.7683C35.0947 38.7706 34.9739 38.7883 34.8433 38.8217C34.7233 38.8522 34.6019 38.8761 34.4792 38.8933C34.3703 38.9083 34.2219 38.9428 34.0342 38.9967C33.8492 39.0494 33.6569 39.0661 33.4575 39.0467C33.4314 39.0439 33.4053 39.0483 33.3792 39.06C33.2647 39.1111 33.145 39.1281 33.02 39.1108C32.9936 39.1076 32.967 39.1138 32.945 39.1283C32.8628 39.1822 32.7742 39.215 32.6792 39.2267C32.5058 39.2483 32.415 39.2606 32.4067 39.2633C32.2039 39.3311 32.0714 39.4622 32.0092 39.6567C31.9808 39.7461 31.9206 39.7992 31.8283 39.8158C31.385 39.8953 30.9633 39.9314 30.5633 39.9242C30.5589 39.9242 30.4203 39.9122 30.1475 39.8883C29.8475 39.8622 29.5542 39.9017 29.2675 40.0067C29.2428 40.0153 29.2156 40.0147 29.1908 40.005C28.7775 39.845 28.3669 39.8431 27.9592 39.9992C27.8303 40.0481 27.7036 40.0433 27.5792 39.985C27.2808 39.8444 27.0492 39.8933 26.8842 40.1317C26.8375 40.1989 26.7911 40.2519 26.745 40.2908C26.6794 40.3458 26.6278 40.3961 26.59 40.4417C26.581 40.4525 26.5746 40.4653 26.5712 40.479C26.5679 40.4927 26.5677 40.507 26.5706 40.5208C26.5736 40.5346 26.5797 40.5476 26.5884 40.5587C26.5971 40.5698 26.6082 40.5788 26.6208 40.585C26.8475 40.695 26.9531 40.7836 26.9375 40.8508C26.4147 40.6186 25.8931 40.3844 25.3725 40.1483C24.9819 39.9711 24.7736 39.8728 24.7475 39.8533C24.5447 39.7006 24.4431 39.4717 24.4425 39.1667C24.4375 36.535 24.4369 33.9031 24.4408 31.2708C24.4975 31.2208 24.5253 31.1581 24.5242 31.0825C24.524 31.0725 24.5272 31.0622 24.5336 31.0529C24.5399 31.0436 24.5491 31.0357 24.56 31.03C24.5839 31.0167 24.5992 30.9944 24.6058 30.9633C24.6079 30.9538 24.6132 30.945 24.6213 30.9382C24.6293 30.9313 24.6396 30.9267 24.6508 30.925L24.945 30.88C25.0092 30.8698 25.0633 30.8716 25.0958 30.885C25.2581 30.9506 25.4067 31.0036 25.5417 31.0442C25.6756 31.0847 25.8306 31.1014 26.0067 31.0942C26.7578 31.0647 27.5092 31.0528 28.2608 31.0583C28.5392 31.0606 28.7639 31.0322 28.935 30.9733C29.1578 30.8961 29.3617 30.7886 29.5467 30.6508C29.7283 30.5158 29.9281 30.4656 30.1458 30.5C30.3858 30.5383 30.9108 30.5344 31.7208 30.4883C31.7708 30.4856 31.8714 30.4667 32.0225 30.4317C32.1119 30.4106 32.2156 30.3986 32.3333 30.3958C32.5167 30.3914 32.7247 30.3433 32.9575 30.2517C33.0458 30.2167 33.1389 30.1494 33.2367 30.05C33.4339 29.8511 33.6467 29.7442 33.875 29.7292C34.3267 29.6997 34.6678 29.4719 34.8983 29.0458C34.9422 28.9653 35.0386 28.9217 35.1875 28.915L35.4175 28.9042C35.4558 28.9025 35.4828 28.9039 35.4983 28.9083C35.6161 28.9422 35.7325 28.9472 35.8475 28.9233C35.9875 28.8944 36.0914 28.8842 36.1592 28.8925C36.2719 28.9053 36.3844 28.9203 36.4967 28.9375Z" fill="#C5C5C5"/>
<path d="M20.9342 33.9792L20.9575 34.3192C20.9447 34.6886 20.8042 34.935 20.5358 35.0583C20.4086 35.1167 20.1586 35.1458 19.7858 35.1458C18.1214 35.1458 16.4567 35.1458 14.7917 35.1458C14.2406 35.1458 13.9708 34.8611 13.9825 34.2917C13.9958 33.6456 14.0006 32.9997 13.9967 32.3542L14.0033 29.7292C14.0161 29.6958 14.0219 29.6403 14.0208 29.5625C14.0158 29.2592 14.0325 29.2125 14.0708 29.4225C14.0722 29.4302 14.0746 29.4378 14.0779 29.4446C14.0812 29.4514 14.0852 29.4574 14.0897 29.462C14.0942 29.4666 14.0991 29.4697 14.1039 29.471C14.1087 29.4724 14.1133 29.4721 14.1175 29.47C14.1253 29.4667 14.1325 29.4594 14.1392 29.4483C14.1481 29.4333 14.1561 29.4336 14.1633 29.4492C14.3406 29.8336 14.6247 29.9461 15.0158 29.7867C15.1497 29.7317 15.2711 29.7014 15.38 29.6958C15.5139 29.6892 15.6042 29.6889 15.6508 29.695C15.7564 29.7089 15.8311 29.7769 15.875 29.8992C15.9511 30.1131 16.0972 30.2169 16.3133 30.2108C16.3401 30.2103 16.3665 30.2169 16.39 30.23C16.585 30.3389 16.7842 30.3467 16.9875 30.2533C16.9998 30.2476 17.0131 30.2444 17.0265 30.2442C17.0399 30.2439 17.053 30.2464 17.065 30.2517C17.3689 30.38 17.6875 30.4211 18.0208 30.375C18.3408 30.3306 18.5883 30.4369 18.7633 30.6942C18.9061 30.9036 19.1033 30.9811 19.355 30.9267C19.3828 30.9206 19.4097 30.9206 19.4358 30.9267C19.6742 30.9811 19.8814 30.9414 20.0575 30.8075C20.1614 30.7281 20.2678 30.6986 20.3767 30.7192C20.4075 30.7251 20.4355 30.724 20.4567 30.7158C20.5933 30.6636 20.6753 30.5636 20.7025 30.4158C20.7053 30.4008 20.7169 30.3778 20.7375 30.3467L20.7533 30.3233C20.7628 30.31 20.7694 30.3103 20.7733 30.3242C20.7889 30.3775 20.8058 30.4306 20.8242 30.4833C20.8442 30.5389 20.8544 30.5931 20.855 30.6458C20.8722 32.2358 20.8719 33.2914 20.8542 33.8125C20.8508 33.9125 20.8775 33.9681 20.9342 33.9792Z" fill="#C6C6C6"/>
<path d="M36.4967 38.1458C36.5044 40.0369 36.5044 41.9278 36.4967 43.8183C36.495 44.0967 36.4564 44.3036 36.3808 44.4392C36.2414 44.6881 36.0258 44.7928 35.7342 44.7533C35.6164 44.7378 35.41 44.6639 35.115 44.5317C32.3883 43.3072 29.6625 42.0803 26.9375 40.8508C26.9531 40.7836 26.8475 40.695 26.6208 40.585C26.6082 40.5788 26.5971 40.5698 26.5884 40.5587C26.5797 40.5475 26.5736 40.5346 26.5706 40.5208C26.5677 40.507 26.5679 40.4927 26.5712 40.479C26.5746 40.4653 26.581 40.4525 26.59 40.4417C26.6278 40.3961 26.6794 40.3458 26.745 40.2908C26.7911 40.2519 26.8375 40.1989 26.8842 40.1317C27.0492 39.8933 27.2808 39.8444 27.5792 39.985C27.7036 40.0433 27.8303 40.048 27.9592 39.9992C28.3669 39.843 28.7775 39.845 29.1908 40.005C29.2156 40.0147 29.2428 40.0153 29.2675 40.0067C29.5542 39.9017 29.8475 39.8622 30.1475 39.8883C30.4203 39.9122 30.5589 39.9242 30.5633 39.9242C30.9633 39.9314 31.385 39.8953 31.8283 39.8158C31.9206 39.7992 31.9808 39.7461 32.0092 39.6567C32.0714 39.4622 32.2039 39.3311 32.4067 39.2633C32.415 39.2606 32.5058 39.2483 32.6792 39.2267C32.7742 39.215 32.8628 39.1822 32.945 39.1283C32.967 39.1138 32.9936 39.1076 33.02 39.1108C33.145 39.128 33.2647 39.1111 33.3792 39.06C33.4053 39.0483 33.4314 39.0439 33.4575 39.0467C33.6569 39.0661 33.8492 39.0494 34.0342 38.9967C34.2219 38.9428 34.3703 38.9083 34.4792 38.8933C34.6019 38.8761 34.7233 38.8522 34.8433 38.8217C34.9739 38.7883 35.0947 38.7706 35.2058 38.7683C35.5197 38.7622 35.7706 38.7492 35.9583 38.7292C36 38.7247 36.0408 38.7067 36.0808 38.675C36.1314 38.6361 36.1683 38.6128 36.1917 38.605C36.3433 38.5539 36.4203 38.6231 36.4225 38.8125C36.4225 38.8642 36.4328 38.8617 36.4533 38.805C36.4567 38.7967 36.4583 38.7875 36.4583 38.7775C36.4594 38.5664 36.4722 38.3558 36.4967 38.1458Z" fill="#BFBFBF"/>
</g>
<defs>
<clipPath id="clip0_4_10">
<rect width="50" height="50" fill="white"/>
</clipPath>
</defs>
</svg>
