<svg width="50" height="50" viewBox="0 0 50 50" fill="none" xmlns="http://www.w3.org/2000/svg">
<path d="M20.067 26.983C19.9243 27.0957 19.852 27.2427 19.85 27.424C19.8187 29.884 19.8253 32.3433 19.87 34.802C19.8707 34.8107 19.8793 34.9757 19.896 35.297C19.9053 35.4817 19.9017 35.6663 19.885 35.851C19.865 36.0663 19.811 36.2397 19.723 36.371C19.5997 36.553 19.433 36.6817 19.223 36.757C19.101 36.801 18.8997 36.826 18.619 36.832C16.3077 36.88 14.318 36.886 12.65 36.85C11.964 36.8353 11.6223 36.477 11.625 35.775C11.6603 26.8463 11.652 19.763 11.6 14.525C11.5973 14.2557 11.6353 14.0187 11.714 13.814C11.7713 13.6653 11.907 13.4767 12.121 13.248C12.3063 13.05 12.494 12.8537 12.684 12.659C16.05 9.20833 19.4043 5.746 22.747 2.272C23.1843 1.818 23.579 1.43767 23.931 1.131C24.2797 0.828333 24.6217 0.840666 24.957 1.168C25.3623 1.56267 25.7597 1.96533 26.149 2.376C27.229 3.51267 28.3163 4.642 29.411 5.764C32.0937 8.51467 34.7727 11.269 37.448 14.027C37.982 14.577 38.506 15.137 39.02 15.707C39.1387 15.839 39.199 15.9937 39.201 16.171C39.2277 18.607 39.219 21.0583 39.175 23.525C39.115 26.8943 39.1047 31.9193 39.144 38.6C39.1473 39.1913 39.1453 39.8577 39.138 40.599C39.1147 42.865 39.124 45.131 39.166 47.397C39.174 47.8183 39.1317 48.1127 39.039 48.28C38.9063 48.5193 38.693 48.6437 38.399 48.653C38.243 48.6577 38.0203 48.6063 37.731 48.499C37.0897 48.2617 36.4517 48.015 35.817 47.759C31.9143 46.1843 28.022 44.5837 24.14 42.957C23.734 42.787 23.5247 42.698 23.512 42.69C23.3713 42.6027 23.2587 42.4863 23.174 42.341C23.108 42.2283 23.071 42.0773 23.063 41.888C23.0497 41.5847 23.047 41.2817 23.055 40.979C23.069 40.4463 23.0763 40.1437 23.077 40.071C23.099 34.0077 23.0983 29.8007 23.075 27.45C23.073 27.226 22.9863 27.0553 22.815 26.938C22.7103 26.8667 22.5427 26.814 22.312 26.78C21.8493 26.7113 21.384 26.7037 20.916 26.757C20.904 26.7583 20.8097 26.7653 20.633 26.778C20.4083 26.7947 20.2197 26.863 20.067 26.983ZM34.783 19.617C34.783 18.8781 34.4895 18.1695 33.967 17.647C33.4445 17.1245 32.7359 16.831 31.997 16.831C31.2581 16.831 30.5495 17.1245 30.027 17.647C29.5045 18.1695 29.211 18.8781 29.211 19.617C29.211 19.9829 29.2831 20.3451 29.4231 20.6832C29.5631 21.0212 29.7683 21.3283 30.027 21.587C30.2857 21.8457 30.5928 22.0509 30.9308 22.1909C31.2689 22.3309 31.6311 22.403 31.997 22.403C32.3629 22.403 32.7251 22.3309 33.0632 22.1909C33.4012 22.0509 33.7083 21.8457 33.967 21.587C34.2257 21.3283 34.4309 21.0212 34.5709 20.6832C34.7109 20.3451 34.783 19.9829 34.783 19.617Z" fill="#010101"/>
</svg>
